<?xml version="1.0" encoding="UTF-8"?>
<svg width="16px" height="17px" viewBox="0 0 16 17" version="1.1" xmlns="http://www.w3.org/2000/svg" xmlns:xlink="http://www.w3.org/1999/xlink">
    <!-- Generator: Sketch 51 (57462) - http://www.bohemiancoding.com/sketch -->
    <title>Group 121</title>
    <desc>Created with Sketch.</desc>
    <defs>
        <polygon id="path-1" points="0.0113662223 0.0110103093 1.38207708 0.0110103093 1.38207708 1.36130631 0.0113662223 1.36130631"></polygon>
        <polygon id="path-3" points="0 0.0158953732 0.87798656 0.0158953732 0.87798656 1.49107355 0 1.49107355"></polygon>
    </defs>
    <g id="Page-1" stroke="none" stroke-width="1" fill="none" fill-rule="evenodd">
        <g id="Group-121">
            <path d="M9.62978969,14.2926639 C8.08521237,14.606932 6.61778969,14.1824371 5.42051134,13.2887052 L6.19762474,12.2369938 C7.13193402,12.9161278 8.25700619,13.2153031 9.37255258,12.988334 C10.4802639,12.7629732 11.391233,12.0495711 11.9874804,11.0671381 L13.1137485,11.731633 C12.3514392,13.0159216 11.174367,13.9784371 9.62978969,14.2926639" id="Fill-1" fill="#C7872A"></path>
            <path d="M6.39251546,3.21242474 L6.36290722,3.22656907 C5.75771134,3.40656907 5.22764948,3.63625979 4.83037113,3.87955876 L4.78513402,3.89691959 L5.95486598,3.05778557 L6.39251546,3.21242474 Z" id="Fill-3" fill="#C7872A"></path>
            <path d="M14.762499,4.22287423 C14.6207258,3.84555464 14.6803546,3.45969897 14.9048495,3.36530722 C15.1293443,3.27087423 15.4299216,3.51029691 15.5716536,3.88765773 C15.7134268,4.26497732 15.6538392,4.65083299 15.4293031,4.74522474 C15.2032412,4.83186392 14.9042722,4.60023505 14.762499,4.22287423" id="Fill-5" fill="#EB4724"></path>
            <path d="M12.2804619,1.96576907 C12.0294928,1.61063505 11.999967,1.18609897 12.2101938,1.02148041 C12.4204206,0.856820619 12.7925031,1.00861443 13.0450804,1.37154227 C13.2960082,1.72667629 13.325534,2.15121237 13.1153072,2.31583093 C12.9035134,2.47265567 12.5314309,2.32090309 12.2804619,1.96576907" id="Fill-7" fill="#F37920"></path>
            <g id="Group-11" transform="translate(9.278351, 0.030227)">
                <mask id="mask-2" fill="white">
                    <use xlink:href="#path-1"></use>
                </mask>
                <g id="Clip-10"></g>
                <path d="M0.381195876,1.11210722 C0.0461443299,0.822828866 -0.0879587629,0.403323711 0.0908041237,0.163818557 C0.261731959,-0.0740371134 0.677154639,-0.0285938144 1.01224742,0.260725773 C1.34729897,0.549962887 1.48140206,0.969509278 1.30263918,1.2089732 C1.13171134,1.44682887 0.724041237,1.39981856 0.381195876,1.11210722" id="Fill-9" fill="#FFCF47" mask="url(#mask-2)"></path>
            </g>
            <path d="M12.9490144,11.4808082 C13.2429113,11.1285608 13.5397361,10.7107464 13.844066,10.2101691 C15.5195299,7.46460206 14.9475299,4.9326433 14.9475299,4.9326433 C14.9475299,4.9326433 15.8122309,4.87041649 15.9078598,5.46027216 C16.0112825,6.04851959 16.1659629,7.96674639 14.437468,10.2518598 C14.0410969,10.7793237 13.5773031,11.2149113 13.1070351,11.5786639 L12.9490144,11.4808082 Z" id="Fill-12" fill="#0C4220"></path>
            <path d="M12.1089897,10.9855588 C12.4003711,10.3413938 12.6146392,9.51788866 12.6783093,8.47322887 C12.7698144,6.8867134 12.6944742,4.39990928 10.2362062,1.78052784 C10.3945979,1.52081649 10.9640412,1.40498144 11.3959175,1.69079588 C11.8277526,1.97665155 13.3863505,4.00729072 13.4561649,6.70642474 C13.4962062,7.9412701 13.1366598,9.68790928 12.2997938,11.0848577 L12.293567,11.0942598 L12.1089897,10.9855588 Z" id="Fill-14" fill="#0C4220"></path>
            <path d="M12.532899,11.2324206 C12.9350845,10.5737814 13.3021773,9.70297732 13.5731876,8.55926598 C14.4231258,4.99056495 12.7186722,2.76211134 12.7186722,2.76211134 C12.7186722,2.76211134 13.3276619,2.32136907 13.7037443,2.73229691 C14.0797856,3.14322474 15.2865485,5.48103918 14.2385072,8.63510103 C13.8489402,9.79485361 13.294466,10.6631423 12.6971052,11.3208742 L12.532899,11.2324206 Z" id="Fill-16" fill="#3B7337"></path>
            <path d="M8.21792165,3.01955475 L8.56035464,2.52764536 L9.96493196,3.02272627 L9.94934433,3.02764536 C9.4729732,2.92479746 8.88748866,2.92052562 8.24291134,3.02434439 L8.21792165,3.01955475 Z" id="Fill-18" fill="#9C7041"></path>
            <path d="M7.15127423,2.27005361 C7.65053196,2.1684866 8.13222268,2.41978557 8.2179134,2.84106392 C7.92451134,2.87636289 7.6171299,2.92267216 7.30508866,2.98613608 C6.98525361,3.05120825 6.68418144,3.12873402 6.40030515,3.21083711 C6.30838763,2.79900206 6.65201649,2.37162062 7.15127423,2.27005361" id="Fill-20" fill="#C7872A"></path>
            <g id="Group-24" transform="translate(0.000000, 6.298268)">
                <mask id="mask-4" fill="white">
                    <use xlink:href="#path-3"></use>
                </mask>
                <g id="Clip-23"></g>
                <path d="M0.876907216,0.749670103 C0.859958763,0.346907216 0.654350515,0.0150721649 0.410804124,0.0158969072 C0.167257732,0.0166804124 -0.0158762887,0.354494845 0.00107216495,0.757257732 C0.0180206186,1.16002062 0.223670103,1.49185567 0.467216495,1.49107216 C0.709154639,1.48245361 0.89385567,1.15243299 0.876907216,0.749670103" id="Fill-22" fill="#EB4724" mask="url(#mask-4)"></path>
            </g>
            <path d="M2.31092371,3.99409897 C2.40317113,3.56915052 2.26444948,3.1668 2.00663505,3.09739794 C1.74877938,3.02799588 1.46560412,3.31306804 1.37492371,3.74585155 C1.28263505,4.1708 1.42139794,4.57315052 1.67921237,4.64255258 C1.93545979,4.70416082 2.21867629,4.41904742 2.31092371,3.99409897" id="Fill-25" fill="#F37920"></path>
            <path d="M4.37833814,2.21679588 C4.57371959,1.8196 4.52543093,1.38261031 4.27516289,1.23044536 C4.02485361,1.07828041 3.66019381,1.28244536 3.46481237,1.67964124 C3.26938969,2.07683711 3.30988454,2.51543505 3.56798763,2.66599175 C3.81829691,2.8181567 4.1829567,2.61399175 4.37833814,2.21679588" id="Fill-27" fill="#FFCF47"></path>
            <path d="M5.34672577,13.1656082 C4.7560866,13.0176907 4.14957113,12.7917938 3.56924124,12.4549278 C1.07905567,11.0362062 0.479715464,9.20845361 0.337282474,8.62812371 C0.202643299,8.0462268 1.02293196,7.76560825 1.02293196,7.76560825 C1.02293196,7.76560825 1.48573608,10.3197938 4.10074639,12.1924124 C4.58590103,12.5405361 5.0317567,12.8153814 5.44771546,13.0232165 L5.34672577,13.1656082 Z" id="Fill-29" fill="#0C4220"></path>
            <path d="M5.90000412,12.4112619 L5.86243711,12.3863959 C4.54627216,11.4275093 3.5328701,9.96021031 3.08722062,8.80792165 C2.0968701,6.2960866 2.73971546,3.82561237 3.02396289,3.38598351 C3.30977732,2.95414845 3.87146804,2.83988041 4.12651959,3.0154268 C2.88713814,6.38713814 3.78940619,8.70569485 4.49357113,10.1303134 C4.96515876,11.0904784 5.4935299,11.7709732 6.02124124,12.2485402 L5.90000412,12.4112619 Z" id="Fill-31" fill="#0C4220"></path>
            <path d="M5.62646598,12.7837649 C4.8118268,12.413332 3.94498144,11.826033 3.13005361,10.8951464 C0.925105155,8.40294021 1.12250722,5.77939381 1.31590928,5.25263093 C1.50151753,4.72743505 2.23430103,4.89518763 2.23430103,4.89518763 C2.23430103,4.89518763 1.53446598,7.60467216 3.70506392,10.5669402 C4.41236289,11.5278887 5.09990928,12.1922186 5.73529072,12.6397649 L5.62646598,12.7837649 Z" id="Fill-33" fill="#3B7337"></path>
            <path d="M7.39078351,3.40739381 C8.99775258,3.08046598 10.3433608,3.02603299 10.3973402,3.2912701 C10.4512784,3.55650722 9.19140206,4.03213608 7.58439175,4.35910515 C5.97742268,4.68603299 4.63181443,4.74046598 4.57787629,4.4752701 C4.52389691,4.20999175 5.78381443,3.73432165 7.39078351,3.40739381" id="Fill-35" fill="#492E18"></path>
            <path d="M9.86716289,14.7805402 C10.1633278,14.6390557 10.8242763,14.3339835 11.3042351,14.0576124 C12.0320701,13.682066 12.846132,13.4108495 13.7189155,13.4282515 C13.3288536,13.0282928 12.8505856,12.8737773 12.5726474,12.8653237 C12.5648536,12.866932 12.6271216,12.8136124 12.6271216,12.8136124 C12.7005237,12.814932 12.805101,12.809901 13.0645237,12.8870969 C13.4614722,13.0013237 13.874668,13.3153443 14.1518227,13.5595093 C14.2269155,13.6092412 14.3145856,13.6807464 14.4038227,13.7600866 C12.5836577,13.3586433 10.5245649,14.8174062 10.5245649,14.8174062 L10.6090598,14.8733237 C12.4489361,13.6947258 13.8416371,13.7119629 14.4523588,13.798932 C14.5604,13.8906845 14.6715753,13.9980247 14.8015546,14.1178598 C12.6240289,13.7566227 10.851699,15.0676742 10.851699,15.0676742 L10.9267918,15.1174062 C12.6047299,14.0611175 14.1503794,14.071633 14.8391216,14.1426845 C14.929967,14.2298186 15.0364,14.3137773 15.1366474,14.4070969 L15.1288536,14.4086639 C13.2118639,14.0106845 11.2659258,15.2270969 10.938833,15.4561278 C10.6368536,15.2494887 10.0533485,14.8970351 9.86716289,14.7805402" id="Fill-37" fill="#8B6427"></path>
            <polygon id="Fill-39" fill="#C7872A" points="8.0372866 2.51221856 9.25538969 1.67135258 8.56033814 2.52768247"></polygon>
            <polygon id="Fill-41" fill="#9C7041" points="9.2553732 1.67136907 8.0372701 2.51223505 8.14976495 2.06691546"></polygon>
            <path d="M4.55240825,16.5686392 C4.61599588,16.4419588 4.67339794,16.3246804 4.72296495,16.2089691 C5.32915052,15.8744124 6.74003711,15.2624124 8.70510928,15.5775052 L8.75484124,15.5024124 C8.75484124,15.5024124 6.6111299,14.9880619 4.74778969,16.1714021 C4.82222268,16.0181649 4.88263505,15.8758969 4.94465567,15.7414227 C5.47286186,15.4227423 6.74807835,14.8627423 8.90222268,15.2287216 L8.95814021,15.1442268 C8.95814021,15.1442268 6.49273814,14.6059588 4.98193402,15.6850928 C5.03310928,15.5772165 5.08585155,15.4770928 5.13558351,15.402 C5.29525361,15.0689278 5.54515052,14.6200206 5.8736866,14.3582062 C6.08230515,14.1857938 6.18993402,14.1557732 6.24758351,14.1196495 L6.31793402,14.146 C6.06700619,14.2701649 5.68556289,14.5914845 5.48275876,15.1120206 C6.27776907,14.7471959 7.13467629,14.6865773 7.95141856,14.7478969 C8.50119175,14.8147423 9.22259381,14.846701 9.55669691,14.8518144 C9.43084124,15.0317732 9.02985155,15.576433 8.84197526,15.890866 C8.43578969,15.8110309 6.15987216,15.4454639 4.55240825,16.5686392" id="Fill-43" fill="#8B6427"></path>
            <polygon id="Fill-45" fill="#C7872A" points="7.65872165 2.28865567 8.37604124 0.623583505 8.1497732 2.06692371"></polygon>
            <polygon id="Fill-47" fill="#9C7041" points="8.37604124 0.62356701 7.65872165 2.28863918 7.45426804 1.84282474"></polygon>
            <polygon id="Fill-49" fill="#C7872A" points="6.72432165 0.171612371 7.45430103 1.84282887 7.15285773 2.27783918"></polygon>
            <polygon id="Fill-51" fill="#9C7041" points="6.72694783 0.171612371 7.1976 2.27783918 6.6976 1.99676701"></polygon>
            <polygon id="Fill-53" fill="#9C7041" points="6.15274227 2.47319588 5.38049485 1.23303093 6.69142268 2.4854433"></polygon>
            <polygon id="Fill-55" fill="#C7872A" points="6.69142268 2.48545979 5.38049485 1.23300619 6.69760825 1.99675876"></polygon>
            <path d="M7.26129072,13.7915753 C7.26129072,13.7915753 7.32228041,13.8116577 7.34261031,13.8319052 C7.36298144,13.8521526 7.15885773,13.9667505 7.15885773,13.9667505 C7.15885773,13.9667505 7.13225979,13.9559052 7.11968247,13.934132 C7.11650722,13.9185031 7.26129072,13.7915753 7.26129072,13.7915753 M8.30463093,13.4493072 C8.31242474,13.4477402 8.23786804,13.5604 8.23164124,13.5697608 C8.22541443,13.5792041 8.20665155,13.5667505 8.17386804,13.5653072 C8.14108454,13.5638639 8.04112577,13.551699 8.04112577,13.551699 C8.04112577,13.551699 7.99498144,13.7641526 7.98574433,13.7985443 C7.97646598,13.8329361 7.96747629,13.9484825 7.96129072,13.9578433 C7.95506392,13.9672454 7.92083711,13.9986268 7.89902268,14.0111629 C7.86941443,14.0253072 7.83819794,14.0316577 7.84442474,14.0222557 C7.84743505,13.997266 7.88285773,13.8519464 7.89052784,13.8097608 C7.89819794,13.7676165 7.94739381,13.530132 7.94739381,13.530132 C7.94739381,13.530132 7.76924948,13.493266 7.75209485,13.4886062 C7.73489897,13.4839876 7.74574433,13.4573897 7.77217732,13.427699 C7.79861031,13.3979258 7.83762062,13.3900082 7.87040412,13.3914515 C7.90318763,13.3928948 8.02195052,13.4174722 8.11411546,13.4312454 C8.20628041,13.4449773 8.29683711,13.4509155 8.30463093,13.4493072 M8.39518763,13.4552866 C8.40920825,13.4442763 8.40314639,13.4942557 8.4032701,13.534833 C8.40500206,13.5832454 8.39757938,13.7065856 8.39757938,13.7065856 C8.39757938,13.7065856 8.61935258,13.7183794 8.63494021,13.7151629 C8.63333196,13.7074103 8.63745567,13.5278227 8.64825979,13.501266 C8.65910515,13.474668 8.68557938,13.4449361 8.69955876,13.433967 C8.71357938,13.4229979 8.75114639,13.4478227 8.76050722,13.4540495 C8.77151753,13.4680701 8.76739381,13.6476165 8.76755876,13.6881938 C8.76768247,13.7288124 8.76846598,13.9723588 8.76083711,14.0145443 C8.75316701,14.0567299 8.69551753,14.0928124 8.66273402,14.0913691 C8.62990928,14.0898845 8.63918763,14.055534 8.64380619,14.0383381 C8.64842474,14.0211423 8.64776495,13.8182144 8.64776495,13.8182144 C8.64776495,13.8182144 8.41663093,13.8002351 8.4010433,13.8034103 C8.39180619,13.8377608 8.39852784,13.9907505 8.39390928,14.0079464 C8.38929072,14.0251423 8.31762062,14.0722351 8.3098268,14.0738021 C8.30203299,14.0754103 8.30970309,14.0331835 8.30652784,14.0175959 C8.30335258,14.0020082 8.32141443,13.8114515 8.31972371,13.7630804 C8.31799175,13.7147093 8.32368247,13.5429567 8.32669278,13.5179258 C8.33291959,13.5085649 8.3733732,13.4678227 8.39518763,13.4552866 M9.01531134,13.5484412 C9.01531134,13.5484412 9.00487835,13.6968124 9.00805361,13.7124 C9.02524948,13.7170186 9.10644536,13.7167711 9.14702268,13.7166474 C9.21102268,13.711699 9.28900206,13.6958639 9.29840412,13.7020495 C9.29840412,13.7020495 9.33279588,13.7113278 9.30331134,13.7660495 C9.26603299,13.8223794 9.2098268,13.8256784 9.16145567,13.8274103 C9.1130433,13.8291423 9.01469278,13.8248124 9.01469278,13.8248124 C9.01469278,13.8248124 9.01188866,13.9309567 9.01506392,13.9465856 C9.01823918,13.9621732 9.05724948,13.9542144 9.09003299,13.9556577 C9.12285773,13.9571423 9.30702268,13.9440289 9.32261031,13.9408536 C9.33823918,13.9376784 9.35225979,13.9267093 9.35700206,13.950132 C9.36178557,13.9735134 9.3384866,14.0188742 9.29485773,14.0439876 C9.25122887,14.069101 9.11069278,14.0570598 9.07007423,14.0572247 C9.02949691,14.0573485 8.9592701,14.0716577 8.94050722,14.0592041 C8.92331134,14.0545856 8.92924948,13.9640289 8.93069278,13.9312454 C8.93217732,13.8984619 8.92331134,13.5752866 8.92475464,13.5425031 C8.92619794,13.5097196 8.94005361,13.458132 8.9712701,13.4518227 C9.0087134,13.4360701 9.10706392,13.4404 9.13828041,13.4340495 C9.16945567,13.4277402 9.25687835,13.4180495 9.27246598,13.4148742 C9.28805361,13.411699 9.32087835,13.4131423 9.3178268,13.4381732 C9.31320825,13.4553691 9.26813608,13.513266 9.22912577,13.5211835 C9.18850722,13.5213072 9.01531134,13.5484412 9.01531134,13.5484412 M9.92578557,13.6312866 C9.92578557,13.6312866 10.0006309,13.5998227 10.0442598,13.574668 C10.0800948,13.5511629 10.1205485,13.5104619 10.1266103,13.4604825 C10.1342804,13.4182557 10.1185691,13.3808536 10.0810021,13.3559876 C10.032466,13.3171423 9.9544866,13.3330186 9.93106392,13.3377608 C9.90764124,13.3425031 9.87023918,13.3582557 9.84842474,13.370833 C9.86574433,13.4160701 9.92578557,13.6312866 9.92578557,13.6312866 M9.91894021,13.9170186 C9.91114639,13.9186268 9.87646598,13.8281938 9.84013608,13.6893485 C9.8021567,13.5427093 9.75481649,13.3898845 9.74685773,13.350833 C9.73894021,13.3118639 9.75296082,13.3008948 9.76698144,13.2899258 C9.78100206,13.2789155 9.87922887,13.242668 9.90883711,13.2285649 C9.94005361,13.2221732 10.0476825,13.1921938 10.1008371,13.2138433 C10.1461567,13.2371423 10.2026515,13.3149979 10.1951052,13.3977608 C10.1875588,13.4805649 10.1612907,13.5508742 10.1005897,13.6119876 C10.0383216,13.665266 9.96970309,13.6873691 9.95407423,13.6905443 C9.95885773,13.7139258 9.98252784,13.7903794 9.98570309,13.805967 C9.97947629,13.8153278 9.98595052,13.8871216 9.91894021,13.9170186 M10.5573732,12.9422557 C10.5947753,12.9265031 10.5701979,13.0452247 10.5639711,13.054668 C10.5593526,13.0718227 10.464301,13.123699 10.4424866,13.1361938 C10.4206722,13.1487711 10.3256206,13.2006474 10.3256206,13.2006474 C10.3256206,13.2006474 10.3587753,13.3238639 10.3681773,13.3300907 C10.3697443,13.3378845 10.4367959,13.3079464 10.4742392,13.2922763 C10.5038474,13.2780907 10.6409608,13.1933485 10.6549402,13.1823794 C10.6689608,13.1714103 10.6845897,13.1682351 10.6877649,13.1838227 C10.690899,13.1994515 10.6693732,13.2931423 10.6631876,13.3025856 C10.6569608,13.3119464 10.5961361,13.3324412 10.5899093,13.3418433 C10.5821155,13.3434103 10.5166722,13.381101 10.5010433,13.3842763 C10.4870639,13.3952454 10.4294144,13.4313691 10.4309814,13.4391629 C10.4341567,13.4547505 10.5079299,13.5778433 10.5079299,13.5778433 C10.5079299,13.5778433 10.5313526,13.5730598 10.553167,13.5604825 C10.5749814,13.5479464 10.642033,13.5180495 10.677868,13.4945443 C10.7230639,13.4772247 10.7511052,13.4552866 10.7635175,13.4364825 C10.7775381,13.4255134 10.794734,13.430132 10.7963423,13.4379258 C10.7979093,13.4457196 10.7716,13.5160701 10.7653732,13.5254722 C10.7607546,13.542668 10.7171258,13.5677814 10.6875175,13.5819258 C10.6579093,13.5960701 10.5752701,13.6291423 10.5612495,13.6401113 C10.5472289,13.6510804 10.4895794,13.6872041 10.4739918,13.6903794 C10.4583629,13.6935546 10.3876412,13.5454309 10.386033,13.5376784 C10.3828577,13.5220495 10.3373732,13.4581732 10.3341979,13.4425856 C10.3232289,13.4285649 10.3089608,13.3583794 10.3041773,13.3349567 C10.3010021,13.3193691 10.2351464,13.2352866 10.2304041,13.2118639 C10.2272289,13.1962351 10.2380742,13.1696784 10.2551464,13.1337196 C10.2721773,13.0977608 10.2784041,13.0883588 10.2923835,13.0774309 C10.3828577,13.0427505 10.4342804,13.0160289 10.4857031,12.9893485 C10.5309402,12.9720289 10.5433526,12.9532247 10.5573732,12.9422557 M10.7964247,12.9992041 C10.7964247,12.9992041 10.8218268,13.1240701 10.8797237,13.169101 C10.9376206,13.2142144 11.0204247,13.2217608 11.0984041,13.2058845 C11.1764247,13.1900082 11.1966722,13.1696371 11.2090845,13.1508742 C11.2137031,13.1336784 11.2024866,13.0384619 11.1977031,13.0150804 C11.1929608,12.991699 11.1240536,12.9325649 11.069332,12.9030804 C11.0067753,12.8751629 10.9083835,12.870833 10.8694144,12.8787505 C10.8257443,12.9039052 10.7964247,12.9992041 10.7964247,12.9992041 M10.760466,12.9821732 C10.7541155,12.9509567 10.746033,12.8714103 10.8005072,12.819699 C10.8471876,12.7695546 10.8830227,12.7460495 10.9236,12.7459258 C10.9626103,12.7379258 11.0297856,12.7486474 11.0939093,12.7843588 C11.1596412,12.8278639 11.2081361,12.8667093 11.2224454,12.9368948 C11.2367134,13.0071629 11.2495381,13.110132 11.2574969,13.1491423 C11.2576206,13.1897196 11.257868,13.2709155 11.2314351,13.3006887 C11.2050021,13.3304206 11.1613732,13.355534 11.0895794,13.3620082 C11.0255794,13.3669155 10.9521773,13.3655959 10.9224454,13.3391629 C10.8927134,13.3127299 10.8316,13.2520289 10.8063629,13.1678227 C10.7794763,13.0758227 10.7668165,13.0133897 10.760466,12.9821732 M11.2385278,12.6168536 C11.2542804,12.6542557 11.385868,12.7818433 11.3936206,12.7802351 C11.4014557,12.778668 11.440301,12.730132 11.4527546,12.7113691 C11.465167,12.6926062 11.5118474,12.6424619 11.5054969,12.6112454 C11.4991464,12.5800289 11.4350227,12.5443588 11.3882186,12.5538433 C11.3476412,12.5540082 11.2992289,12.5557402 11.2385278,12.6168536 M11.1320948,12.5328948 C11.1289196,12.517266 11.1570845,12.5359052 11.1742804,12.5405237 C11.188301,12.5295546 11.2443423,12.4856784 11.2941979,12.4511216 C11.3440536,12.4166062 11.4080536,12.4117402 11.4424041,12.4210186 C11.4767959,12.4302144 11.5331258,12.467534 11.5504454,12.5127299 C11.5677649,12.557967 11.5525485,12.6829155 11.5479299,12.7001113 C11.5433113,12.717266 11.4609608,12.831534 11.4423216,12.859699 C11.4830227,12.9001526 11.5504866,12.9920289 11.5552289,13.0154515 C11.5600124,13.038833 11.5569608,13.0638639 11.5257443,13.0702144 C11.4945691,13.0765237 11.4866103,13.0375546 11.4459093,12.9970598 C11.405167,12.9566062 11.2907753,12.8336784 11.2688371,12.8056371 C11.2468577,12.7775959 11.1920124,12.707534 11.1794351,12.6857196 C11.1668577,12.6638639 11.1371258,12.6374722 11.1355588,12.6296371 C11.1167546,12.6172247 11.1274763,12.5500907 11.1320948,12.5328948 M11.4981979,12.2959052 C11.4888371,12.2896784 11.4934557,12.2724825 11.4965072,12.247534 C11.4995175,12.2225031 11.521332,12.209967 11.530734,12.2161938 C11.5479299,12.2208124 11.6184041,12.287699 11.638734,12.3079052 C11.6591052,12.3281526 11.9064866,12.5459258 11.9159299,12.5521113 C11.9252907,12.5583381 11.9595588,12.5269979 11.9797649,12.5066268 C11.9921773,12.4878639 12.1196412,12.315699 12.1320536,12.2969361 C12.144466,12.2781732 12.1771258,12.2390392 12.1881361,12.2530186 C12.1975381,12.2592454 12.2197237,12.3684412 12.2135381,12.3778433 C12.2073113,12.3872041 12.1730433,12.4185443 12.1544454,12.4467505 C12.1358062,12.4748742 12.0393938,12.6001113 12.0191464,12.6204825 C12.0005485,12.6486474 11.9553113,12.665967 11.9397237,12.6691423 C11.9240948,12.6722763 11.8927546,12.6380495 11.8817856,12.6240701 C11.8723835,12.6178433 11.7236412,12.4856371 11.6939093,12.4591629 C11.6579505,12.442132 11.5076,12.302132 11.4981979,12.2959052 M12.0577031,11.5321938 C12.0639299,11.5227505 12.0920948,11.5414309 12.1078062,11.578833 C12.1235588,11.6162763 12.098734,11.6538021 12.0862804,11.6725649 C12.073868,11.6913691 11.9511464,11.8869155 11.938734,11.9057196 L12.0623629,11.9942969 C12.0623629,11.9942969 12.1369196,11.8816371 12.1509402,11.870668 C12.157167,11.8612247 12.2409608,11.7142144 12.2565897,11.7110392 C12.2721773,11.7079052 12.2959711,11.8248948 12.2975794,11.8326887 C12.2991464,11.8405237 12.174899,12.0282351 12.148466,12.0580082 C12.1907753,12.1062557 12.2814557,12.1528124 12.3032701,12.1402351 C12.3250845,12.1276577 12.405868,12.0055959 12.4198887,11.994668 C12.4447546,11.957101 12.4912701,11.8663794 12.5099093,11.8382557 C12.5223629,11.8194515 12.5555588,11.942668 12.5571258,11.9505031 C12.558734,11.9582969 12.4577031,12.1006887 12.4266515,12.1476577 C12.3955588,12.1945443 12.3224454,12.2744619 12.3068577,12.2775959 C12.2990639,12.2792041 12.1628577,12.1687711 12.1440948,12.1564 C12.125332,12.1439464 12.0172907,12.0521938 12.0078887,12.045967 C11.9797237,12.0273691 11.8936619,11.9636165 11.8748577,11.9512041 C11.8638887,11.9371835 11.8605897,11.8809773 11.8668165,11.8715753 C11.8730021,11.8622144 11.9056619,11.8230804 11.922734,11.7871216 C11.9413732,11.7589567 11.9957237,11.666668 12.0081361,11.6478639 C12.0033938,11.6244412 12.0515175,11.5415546 12.0577031,11.5321938 M6.26021856,12.7441938 C6.29918763,12.7362351 6.29786804,12.8096371 6.29481649,12.8346268 C6.2933732,12.8674103 6.26735258,13.0189567 6.26129072,13.0689361 L6.24157938,13.2516577 C6.24157938,13.2516577 6.30545567,13.2061732 6.33811546,13.1669979 C6.37856907,13.1262969 6.49213608,13.0056784 6.49836289,12.9963175 C6.50298144,12.9791216 6.51700206,12.9681526 6.55440412,12.9524 C6.59180619,12.9366887 6.60900206,12.9413072 6.60438351,12.9585031 C6.60595052,12.9662969 6.59209485,13.0178433 6.58747629,13.0350392 C6.59221856,13.0584619 6.56207423,13.3895546 6.55745567,13.4067093 C6.57770309,13.3863794 6.74256907,13.1984619 6.76900206,13.1687299 C6.79543505,13.1389567 6.82190928,13.1092247 6.85151753,13.0950392 C6.88891959,13.0793278 6.91390928,13.0823794 6.91708454,13.097967 C6.92025979,13.1135959 6.83312577,13.2044412 6.80830103,13.241967 C6.77564124,13.281101 6.59976495,13.4549979 6.58112577,13.4831629 C6.55469278,13.5128948 6.50021856,13.5646062 6.49242474,13.5661732 C6.48463093,13.5677402 6.44244536,13.5601113 6.43308454,13.5538845 C6.42368247,13.547699 6.44364124,13.446132 6.43885773,13.4227505 C6.44190928,13.3977196 6.46133196,13.1338433 6.4581567,13.1182144 C6.45036289,13.1198227 6.23403299,13.3344206 6.2138268,13.3547918 C6.20141443,13.3735546 6.10157938,13.4020082 6.09378557,13.4035753 C6.08599175,13.4051835 6.09984742,13.3535959 6.10751753,13.3114103 C6.11518763,13.2692247 6.12574433,13.1614722 6.13646598,13.0943381 C6.14714639,13.0271629 6.15774433,12.9194103 6.15918763,12.8865856 C6.16063093,12.8538021 6.16673402,12.8038227 6.18694021,12.7834515 C6.21498144,12.7615134 6.25081649,12.737967 6.26021856,12.7441938 M7.03465155,13.2365237 L6.96483711,13.3726062 C6.96483711,13.3726062 7.21976495,13.5075753 7.23073402,13.5215959 C7.24013608,13.5278227 7.20430103,13.5513278 7.16067216,13.5764412 C7.1170433,13.6015959 7.09667216,13.5813485 7.07947629,13.5767299 C7.06228041,13.5721113 6.89807423,13.4836577 6.89807423,13.4836577 C6.89807423,13.4836577 6.81885773,13.6135134 6.82825979,13.619699 C6.8392701,13.6337196 7.0752701,13.715699 7.12681649,13.7295546 C7.17997113,13.7512454 7.15658969,13.7560289 7.09894021,13.7921113 C7.04129072,13.8282351 7.0224866,13.8157814 7.00372371,13.8033691 C6.97716701,13.7924825 6.79114639,13.7166474 6.77234227,13.7041938 C6.75514639,13.6996165 6.70042474,13.6700907 6.70661031,13.6606887 C6.71444536,13.6591216 6.80285773,13.4949155 6.8199299,13.4589567 C6.83856907,13.4307505 6.91617732,13.293101 6.92079588,13.2759464 C6.92541443,13.2587505 6.97353814,13.1758227 6.98755876,13.1648948 C6.99378557,13.1554515 7.03898144,13.138132 7.05778557,13.1505856 C7.07494021,13.1552041 7.18285773,13.2063794 7.23601237,13.2280701 C7.2876,13.2419258 7.38450722,13.2790804 7.38607423,13.2868742 C7.38145567,13.3040701 7.30665155,13.335534 7.29258969,13.3465031 C7.27700206,13.3496784 7.2410433,13.3326474 7.20508454,13.3155753 C7.16912577,13.2985443 7.03465155,13.2365237 7.03465155,13.2365237" id="Fill-57" fill="#492F18"></path>
            <polygon id="Fill-59" fill="#9C7041" points="5.95485361 3.05776495 4.98050309 2.54110515 6.43031753 2.83916701"></polygon>
            <polygon id="Fill-61" fill="#C7872A" points="6.43030928 2.97319588 4.98049485 2.56592827 6.15274227 2.47319588"></polygon>
            <path d="M4.55240825,16.5686392 C6.16766598,15.4438969 8.43578969,15.8110309 8.82638763,15.8940412 C9.02205773,15.5780412 9.41364536,15.0271546 9.54110928,14.8549897 C9.65508866,14.8562268 9.72065567,14.8591134 9.72065567,14.8591134 C9.72065567,14.8591134 9.00449072,15.9309072 8.93945979,16.0903711 C7.15405773,15.8199794 5.79442887,15.8853814 4.47174845,16.7312371 C4.49343918,16.6780825 4.52292371,16.6233608 4.55240825,16.5686392" id="Fill-63" fill="#613E16"></path>
            <path d="M9.86716289,14.7805402 C10.0533485,14.8970351 10.6274515,15.2433031 10.9310392,15.4577361 C11.2503381,15.2302722 13.2040701,14.0122928 15.1210186,14.4102722 L15.1288536,14.4086639 C15.1773485,14.4475918 15.2258845,14.4864371 15.2744206,14.5253237 C13.7201526,14.2728289 12.449266,14.7345196 10.9114928,15.6810351 C10.787699,15.5518804 9.7112866,14.8529113 9.7112866,14.8529113 C9.7112866,14.8529113 9.7720701,14.8324165 9.86716289,14.7805402" id="Fill-65" fill="#613E16"></path>
            <path d="M11.4106969,10.3883876 C11.4196866,10.2728 11.4130474,10.1604289 11.3940371,10.0668206 C11.3780371,9.94822268 11.3479753,9.84059381 11.3273567,9.73919175 C11.2954804,9.5425732 11.3088412,9.32863505 11.5638515,9.02492371 C11.6135423,8.94978969 11.6836454,8.89494433 11.761501,8.83844948 C11.8393979,8.78199588 11.9250887,8.72397526 11.9997691,8.65189278 C12.1367175,8.5265732 12.2641814,8.35436701 12.3054186,8.0779134 C12.3133773,8.11692371 12.315068,8.16529485 12.3184082,8.22150103 C12.3283052,8.39007835 12.3149856,8.60401649 12.2984495,8.80232577 C12.2807588,9.11465567 12.2116041,9.45366598 12.1034804,9.80059381 C11.8955216,10.1760165 11.6631093,10.2313979 11.5181608,10.3177485 C11.4791918,10.325666 11.4449649,10.3570474 11.4106969,10.3883876" id="Fill-67" fill="#C7872A"></path>
            <path d="M11.4106969,10.3883876 C11.4449649,10.3570474 11.4791918,10.325666 11.5228206,10.3005526 C11.6677278,10.2142021 11.9001814,10.1588206 12.1081402,9.78343918 C11.935068,10.3304495 11.6746144,10.8871093 11.3372536,11.3050474 C11.0916041,11.6149856 10.8831093,11.8280165 10.7243052,11.9659546 C10.7693773,11.9080577 10.8191093,11.8329237 10.8688,11.7578309 C11.0800577,11.4386144 11.3049649,10.9866969 11.3969649,10.4805113 C11.4062021,10.4461608 11.4092536,10.4211711 11.4106969,10.3883876" id="Fill-69" fill="#8B6427"></path>
            <path d="M10.6006103,10.9187505 C10.6065485,10.8281938 10.6031258,10.7314103 10.6012701,10.6424206 C10.5973938,10.4238639 10.5216412,10.1712041 10.4553732,9.96534845 C10.3875381,9.75165773 10.312033,9.58019381 10.2899299,9.51157526 C10.2599093,9.40394639 10.3016825,9.2898433 10.4526928,9.15347216 C10.5880742,9.02035876 10.6217649,8.82666804 10.6291464,8.70324536 C10.6573113,8.72192577 10.6792907,8.74992577 10.7121979,8.79198763 C10.7592907,8.86365773 10.804899,8.96811134 10.8505485,9.07252371 C10.9339711,9.28303918 10.9909608,9.5232866 11.0116206,9.62468866 C11.0211464,9.67149278 11.0432082,9.74011134 11.0528577,9.82753402 C11.0703423,9.91330722 11.083167,10.0163175 11.0773526,10.1474928 C11.0809402,10.2848536 11.0658887,10.4504206 11.0181361,10.6550804 C10.955332,10.5460082 10.8909608,10.4291423 10.804734,10.3248124 C10.7835794,10.5403175 10.6595794,10.8093072 10.6006103,10.9187505" id="Fill-71" fill="#C7872A"></path>
            <path d="M10.6006103,10.9187505 C10.6595794,10.8093072 10.7851876,10.5481526 10.8109608,10.3154103 C10.8971464,10.4197402 10.9615588,10.5366062 11.0243629,10.6457196 C10.9858887,10.8160289 10.9287753,11.0144619 10.8452289,11.242668 C10.6594969,11.7272454 10.4138474,12.0372247 10.2256,12.2298845 L10.191332,12.2612247 L10.1975588,12.2518227 C10.2286103,12.2048536 10.2580948,12.150132 10.2875794,12.0954103 C10.3170639,12.0406474 10.3449402,11.9780907 10.3790433,11.9061732 C10.5016412,11.6700495 10.5846515,11.2794515 10.6006103,10.9187505" id="Fill-73" fill="#8B6427"></path>
            <path d="M10.0035216,11.178334 C9.98752165,11.0597361 9.96372784,10.9427052 9.93515052,10.802334 C9.88752165,10.5682722 9.79152165,10.3359835 9.70661443,10.1582928 C9.66418144,10.0694268 9.62331546,9.98839588 9.58562474,9.92295258 C9.55576907,9.85590103 9.53061443,9.81227216 9.52426392,9.78105567 C9.50694433,9.73585979 9.52545979,9.66711753 9.55799588,9.58736495 C9.59049072,9.50761237 9.62620206,9.4435299 9.64166598,9.39973608 C9.66954227,9.33722062 9.6753567,9.20604536 9.6531299,9.09680825 C10.0645113,9.32179794 10.4491711,9.97474639 10.4022845,10.9022515 C10.3410474,10.8009732 10.2876454,10.6980866 10.2123876,10.6077773 C10.1803052,10.8093031 10.0593155,11.0532619 10.0035216,11.178334" id="Fill-75" fill="#C7872A"></path>
            <path d="M10.0035216,11.178334 C10.0687175,11.0594474 10.1803052,10.8093031 10.2029856,10.6015918 C10.2798515,10.6996948 10.3410474,10.8009732 10.3928825,10.8960247 C10.3930474,10.9366433 10.3853773,10.9787876 10.387068,11.0272 C10.3311918,11.5909938 10.1404289,11.9709938 9.9476866,12.2214268 C9.88393402,12.3075299 9.81704742,12.3780041 9.75634639,12.4390763 C9.88974845,12.1763546 10.004099,11.8200247 10.0206351,11.6216742 C10.0310268,11.4733031 10.0290474,11.3437773 10.0114392,11.2173443 L10.0035216,11.178334 Z" id="Fill-77" fill="#8B6427"></path>
            <path d="M8.22345979,11.5729856 C8.05154227,11.0474186 8.11405773,10.5960371 8.23129485,10.174099 C8.29145979,9.95063505 8.36259381,9.74119175 8.42750103,9.54119175 C8.47694433,9.38486186 8.51859381,9.23018144 8.53682062,9.0802433 C8.61220206,9.2111299 8.7093567,9.32948041 8.81595464,9.45397526 C8.94605773,9.61438763 9.10119175,9.77781031 9.24383093,9.95999588 C9.50882062,10.3041196 9.74275876,10.6952124 9.79607835,11.2368206 C9.73034639,11.1933155 9.65063505,11.1607794 9.54906804,11.1408206 C9.22725361,11.0763258 8.95183093,10.880532 8.88729485,10.7230474 C8.88939794,10.893233 8.71236701,11.181068 8.4413567,11.3661814 C8.33385155,11.4367794 8.26696495,11.5072536 8.22345979,11.5729856" id="Fill-79" fill="#C7872A"></path>
            <path d="M8.22345979,11.5729856 C8.26696495,11.5072536 8.34007835,11.4274186 8.43356289,11.3677485 C8.7045732,11.1826351 8.88160412,10.8948 8.87950103,10.7246557 C8.94403711,10.882099 9.21945979,11.0778928 9.54127423,11.1424289 C9.63500619,11.1639546 9.72416082,11.2027175 9.78828454,11.2383876 C9.7930268,11.2617691 9.78997526,11.2868 9.79636701,11.3179753 C9.82770722,11.8315423 9.66205773,12.2551711 9.50515052,12.4820577 C9.44923299,12.5665526 9.38692371,12.6198722 9.34490309,12.6527794 C9.30906804,12.6763258 9.28725361,12.6889031 9.27941856,12.6904701 C9.26383093,12.6936454 9.23888247,12.6905938 9.19669691,12.6829237 C9.13731546,12.6706351 9.05917113,12.645934 8.97467629,12.5899753 C8.7493567,12.4408619 8.42354227,12.1171918 8.25178969,11.6322433 C8.23141856,11.6119959 8.2282433,11.596367 8.22345979,11.5729856" id="Fill-81" fill="#8B6427"></path>
            <path d="M7.53776907,11.4769031 C7.13376907,10.649233 7.23117113,9.89014021 7.52193402,9.52230515 C7.54411959,9.63150103 7.60073814,9.74997526 7.65084124,9.79665567 C7.6805732,9.8231299 7.7479134,9.87438763 7.80119175,9.93665567 C7.86226392,9.9973567 7.89838763,10.0550062 7.9079134,10.1017691 C7.91265567,10.125233 7.90816082,10.1829649 7.90684124,10.256367 C7.90552165,10.3297691 7.89958351,10.4203258 7.89521237,10.5187175 C7.88811959,10.7232536 7.88890309,10.9668 7.93653196,11.2008206 C7.96510928,11.341233 7.99051134,11.4660165 8.02053196,11.5736866 C7.91405773,11.4897278 7.71360412,11.3030062 7.61154227,11.1206969 C7.55574845,11.2458103 7.54675876,11.3613567 7.53776907,11.4769031" id="Fill-83" fill="#C7872A"></path>
            <path d="M7.53776907,11.4769031 C7.55455258,11.3597485 7.56354227,11.2442021 7.59752165,11.131666 C7.69958351,11.3140165 7.90787216,11.4990887 8.00651134,11.5846144 L8.01286186,11.6158309 C8.04605773,11.7390474 8.09484124,11.8591299 8.16238763,11.9915835 C8.25669691,12.175501 8.49958351,12.4510474 8.72506804,12.6407794 C8.64531546,12.6082845 8.55620206,12.5695216 8.46387216,12.5152124 C8.18861443,12.3599546 7.85669691,12.0862639 7.59277938,11.5875835 C7.56923299,11.5517485 7.55348041,11.5143052 7.53776907,11.4769031" id="Fill-85" fill="#8B6427"></path>
            <path d="M6.85089485,11.4948206 C6.73637938,11.331233 6.65625567,11.1769649 6.5980701,11.0506557 C6.54924536,10.9306144 6.52083299,10.8307794 6.49555464,10.7465732 C6.47811134,10.6607588 6.46380206,10.5905732 6.45431753,10.5437691 C6.43365773,10.442367 6.39386392,10.2067381 6.38685361,9.97259381 C6.38021443,9.86018144 6.38920412,9.74463505 6.40454433,9.66030515 C6.41060619,9.61028454 6.4260701,9.56653196 6.44631753,9.54616082 C6.50132784,9.65684124 6.60800825,9.82199588 6.78466804,9.89164536 C6.96912165,9.9596866 7.05996701,10.0468619 7.0744,10.1576247 C7.08087423,10.2294186 7.08619381,10.4151918 7.09938969,10.6400165 C7.12046186,10.8631918 7.15720412,11.1237691 7.22969897,11.3202639 C7.2627299,11.4029031 7.29580206,11.485501 7.33823505,11.574367 C7.24120412,11.4966351 7.02355464,11.3052948 6.90891546,11.1011711 C6.87967835,11.2370887 6.87390515,11.3682639 6.85089485,11.4948206" id="Fill-87" fill="#C7872A"></path>
            <path d="M6.85089485,11.4948206 C6.8660701,11.3698722 6.87967835,11.2370887 6.91827629,11.1073567 C7.03134845,11.3037278 7.24899794,11.4950268 7.34763711,11.5805938 C7.50326598,11.9063258 7.73233814,12.2334598 7.92957526,12.4045526 C7.98912165,12.4574186 8.03761649,12.4963052 8.08771959,12.5429856 C8.13625567,12.5818309 8.18479175,12.6207175 8.23171959,12.6518103 L8.24112165,12.6579959 L8.20516289,12.6409237 C7.95035876,12.546532 7.60936907,12.3478515 7.24903918,11.9743258 C7.08454433,11.8047175 6.95444124,11.6443464 6.85089485,11.4948206" id="Fill-89" fill="#8B6427"></path>
            <path d="M5.5241567,11.1229649 C5.28906392,10.8458103 5.0913732,10.5529856 4.95463093,10.2802021 C4.8619299,10.1041196 4.7644866,9.9045732 4.70935258,9.75331546 C4.67788866,9.67851134 4.66357938,9.60832577 4.65562062,9.56927423 C4.65087835,9.54589278 4.65553814,9.52869691 4.6539299,9.52086186 C4.6539299,9.52086186 4.65232165,9.51310928 4.6601567,9.51150103 C4.76419794,9.82337732 4.96296082,9.9616866 5.17240412,10.0327794 C5.26931134,10.0699753 5.37087835,10.0898928 5.46461031,10.111501 C5.55834227,10.1330268 5.64588866,10.1639546 5.7193732,10.2058515 C6.07442474,10.3936041 6.16869278,10.5774804 6.21619794,10.7709237 C6.24621856,10.8785526 6.2590433,10.9815629 6.28283711,11.0985526 C6.30188866,11.1922021 6.33970309,11.2982227 6.39314639,11.401068 C6.34935258,11.3856041 6.3056,11.3701402 6.25562062,11.3640784 C6.09945567,11.3552124 5.86225979,11.3872124 5.5241567,11.1229649" id="Fill-91" fill="#C7872A"></path>
            <path d="M5.5241567,11.1229649 C5.86225979,11.3872124 6.09788866,11.3474186 6.26502268,11.3703052 C6.30716701,11.3779753 6.35875464,11.3918722 6.40250722,11.4073361 C6.41669278,11.4369031 6.42922887,11.4587588 6.45116701,11.4867588 C6.72584742,11.9183052 7.11722887,12.2448619 7.43640412,12.4561196 C7.51149691,12.5058515 7.58663093,12.5555423 7.65075464,12.5912536 C7.4507134,12.5263464 7.17553814,12.4117485 6.82832165,12.2223876 C6.35442474,11.9694804 5.89096082,11.5682433 5.5241567,11.1229649" id="Fill-93" fill="#8B6427"></path>
            <path d="M6.97861443,7.17132784 L7.0688,7.05549278 C7.16517113,6.93029691 7.29263505,6.75813196 7.42005773,6.58596701 L7.89601649,6.05042062 L9.14884124,6.73792577 C8.84937732,6.82320412 8.03358351,7.04604948 6.97861443,7.17132784" id="Fill-95" fill="#492E18"></path>
            <path d="M9.98757113,5.42994639 L11.0152,6.00887423 C10.8157361,6.10631753 10.3107876,6.37967835 9.45454021,6.64322474 L9.98757113,5.42994639 Z" id="Fill-97" fill="#492E18"></path>
            <path d="M11.103934,5.92583918 C10.8568,5.78926186 10.4062021,5.49099381 10.1606351,5.36225155 C10.7190268,5.19177732 11.1849237,4.92637526 11.3266557,4.82443711 L11.103934,5.92583918 Z" id="Fill-99" fill="#F9A440"></path>
            <path d="M9.76610309,5.4993732 L9.27179381,6.62353814 C9.02309278,6.47916701 8.41459794,6.12366186 8.11113402,5.94980619 C8.80383505,5.80077526 9.12206186,5.72790928 9.76610309,5.4993732" id="Fill-101" fill="#F9A440"></path>
            <path d="M5.95147216,6.27546804 L6.84574021,7.11711753 C7.01827629,6.88705567 7.43947216,6.32206598 7.65089485,6.04346804 C6.94722474,6.17847835 6.63361649,6.23418969 5.95147216,6.27546804" id="Fill-103" fill="#F9A440"></path>
            <path d="M5.72047835,6.29809897 L5.00072577,7.23253196 C5.22245773,7.24428454 5.77066392,7.30333608 6.66963299,7.20981031 L5.72047835,6.29809897 Z" id="Fill-105" fill="#492E18"></path>
            <path d="M4.87882062,7.19235052 C5.05296495,6.97008247 5.35123299,6.5194433 5.52690309,6.30496907 C4.94632577,6.36624742 4.4091299,6.32117526 4.23882062,6.28270103 L4.87882062,7.19235052 Z" id="Fill-107" fill="#F9A440"></path>
            <path d="M11.8287464,5.57528247 C11.6838392,5.66163299 11.3706433,5.83907629 11.2459423,5.90505567 C11.2934062,5.6192 11.419633,5.08171546 11.5216948,4.78476701 C11.6458598,5.03569485 11.7404165,5.30080825 11.8287464,5.57528247" id="Fill-109" fill="#492E18"></path>
            <path d="M4.13403711,7.16514639 C4.10653196,6.87017732 4.10397526,6.57821856 4.11086186,6.2924866 C4.31473814,6.57595052 4.61449072,7.05112577 4.73840825,7.22094021 C4.58385155,7.21986804 4.26834639,7.18658969 4.13403711,7.16514639" id="Fill-111" fill="#492E18"></path>
            <path d="M8.09578144,7.91077526 C8.16889485,7.83089897 8.22654433,7.79477526 8.28114227,7.78368247 C8.33574021,7.77258969 8.40452371,7.79110515 8.50143093,7.82825979 C8.59994639,7.87316701 8.71722474,7.93056907 8.8672866,7.9893732 C9.12526598,8.09939381 9.52522474,8.18858969 9.93141031,8.26842474 C10.0329773,8.28842474 10.1345031,8.30838351 10.2454309,8.33452784 C9.95825567,8.36046598 9.58831753,8.37885773 9.23701856,8.36912577 C9.34501856,8.46087835 9.46563711,8.57444536 9.57219381,8.69898144 C9.39079175,8.60586804 9.08126598,8.48203299 8.78110103,8.36438351 C8.85025567,8.50463093 8.94774021,8.70417732 9.03899794,8.91308454 C8.80398763,8.67654845 8.57235876,8.49621856 8.40176082,8.37654845 C8.29153402,8.55333196 8.14716289,8.80203299 8.01705979,9.12100206 C8.01305979,8.8618268 8.02947216,8.62294021 8.04452371,8.4573732 C7.80019381,8.69390928 7.51541031,8.97122887 7.37235876,9.14656907 C7.42180206,8.99028041 7.49000825,8.84636289 7.55198763,8.7119299 C7.26365773,8.85180619 6.94712165,8.97308454 6.68200825,9.06764124 C6.77392577,9.00021856 6.86736907,8.94058969 6.9592866,8.87312577 C7.30196701,8.64091959 7.63371959,8.39473402 7.82976082,8.20046598 C7.93714227,8.08929072 8.02266804,7.99065155 8.09578144,7.91077526" id="Fill-113" fill="#C7872A"></path>
            <path d="M10.8982103,3.67678351 C10.9562722,3.76247423 11.0332206,3.90115464 11.0379629,3.92453608 C11.0521072,3.95418557 11.0490969,3.97917526 11.0444371,3.99637113 C11.0460454,4.00412371 11.0320247,4.01513402 11.0180041,4.02610309 C11.0102103,4.0276701 10.9867876,4.03245361 10.9508289,4.01538144 C10.9148701,3.99835052 10.8757361,3.96569072 10.8366021,3.93303093 C10.8162309,3.91278351 10.7896742,3.90193814 10.7693031,3.88173196 C10.748932,3.86148454 10.7223753,3.85063918 10.7035711,3.8382268 C10.6582515,3.81496907 10.5956948,3.78705155 10.5302515,3.82474227 C10.4648082,3.86243299 10.4290969,3.9265567 10.4168082,3.98593814 C10.4059629,4.01253608 10.4045196,4.04531959 10.401468,4.07026804 C10.3984165,4.09529897 10.3969732,4.12808247 10.3939216,4.15307216 C10.3849732,4.26861856 10.3710763,4.32020619 10.2946639,4.34387629 C10.1714062,4.37707216 10.0589113,4.34309278 9.9432,4.29352577 C9.88068454,4.26560825 9.81973608,4.24552577 9.76814845,4.2316701 C9.70876701,4.21934021 9.64159175,4.20861856 9.57458144,4.2385567 C9.5075299,4.26841237 9.46245773,4.32630928 9.42674639,4.39047423 C9.40810722,4.41863918 9.3988701,4.45298969 9.38183918,4.48894845 C9.37256082,4.52334021 9.35392165,4.55150515 9.33689072,4.58746392 C9.2748701,4.72193814 9.22051959,4.8142268 9.12691134,4.83327835 C8.96311753,4.86663918 8.85359175,4.80762887 8.74254021,4.74086598 C8.71437526,4.72226804 8.68621031,4.70358763 8.65965361,4.69278351 C8.63148866,4.67414433 8.59709691,4.66486598 8.56893196,4.6462268 C8.49862268,4.61991753 8.43144742,4.60919588 8.3472,4.63447423 C8.2552,4.66131959 8.20068454,4.71303093 8.15561237,4.77092784 C8.1369732,4.79909278 8.11833402,4.82725773 8.10130309,4.86321649 C8.08266392,4.89138144 8.07181856,4.91797938 8.05474639,4.95393814 C7.99577732,5.06342268 7.94146804,5.15571134 7.77763299,5.18903093 C7.61383918,5.22235052 7.52773608,5.15863918 7.43070515,5.08090722 C7.40249897,5.06226804 7.38056082,5.0342268 7.35239588,5.01558763 C7.32423093,4.99694845 7.29449897,4.97051546 7.26633402,4.95187629 C7.20221031,4.91616495 7.12406598,4.89146392 7.0366433,4.9011134 C6.94926186,4.91076289 6.88381856,4.94845361 6.83713814,4.9985567 C6.80909691,5.02049485 6.79045773,5.04870103 6.77181856,5.07682474 C6.75317938,5.10498969 6.7329732,5.12536082 6.71433402,5.15352577 C6.63816907,5.25839175 6.56043711,5.35546392 6.39660206,5.38878351 C6.2952,5.40940206 6.20130309,5.34725773 6.09169485,5.24771134 C6.03998351,5.19323711 5.9820866,5.14816495 5.93198351,5.10148454 C5.88344742,5.06259794 5.81771546,5.01913402 5.75214845,5.01620619 C5.67874639,5.0148866 5.62109691,5.05101031 5.57284948,5.09331959 C5.52299381,5.12783505 5.47635464,5.17793814 5.42967423,5.22804124 C5.33635464,5.32828866 5.23825155,5.4051134 5.11181856,5.42268041 C5.04002474,5.42919588 5.00868454,5.39492784 4.9708701,5.28890722 C4.95194227,5.23587629 4.93305567,5.18284536 4.91573608,5.13764948 C4.89058144,5.09402062 4.85289072,5.02857732 4.77173608,5.02882474 C4.70612784,5.02593814 4.6563134,5.06045361 4.61425155,5.09336082 C4.56439588,5.12787629 4.52555052,5.17641237 4.48509691,5.21715464 C4.44460206,5.25785567 4.4057567,5.30639175 4.3715299,5.33773196 C4.3388701,5.37686598 4.30926186,5.39101031 4.29524124,5.40197938 C4.28740619,5.40358763 4.2406433,5.41307216 4.24827216,5.37092784 C4.24513814,5.35534021 4.24814845,5.33035052 4.25581856,5.28816495 C4.26955052,5.196 4.31107629,5.00070103 4.31107629,5.00070103 C4.34188041,4.87257732 4.37268454,4.74445361 4.41128247,4.61476289 C4.7057567,4.90416495 6.14018969,4.80729897 7.63796289,4.5025567 C9.16695258,4.19146392 10.5470351,3.70762887 10.6550351,3.32008247 C10.7178392,3.42915464 10.8072,3.54907216 10.8982103,3.67678351" id="Fill-115" fill="#492E18"></path>
            <path d="M11.871332,5.7047134 C11.9407753,5.92619794 11.9961567,6.15861031 12.0453938,6.40046598 C12.1596619,6.96211546 12.2067546,7.51308454 12.202301,8.0501567 C12.1641155,8.30162062 12.0552907,8.44562062 11.9307134,8.55221856 C11.856033,8.62425979 11.7765691,8.67291959 11.7002804,8.73720825 C11.678466,8.74978557 11.6582598,8.77011546 11.6364454,8.78269278 C11.5173113,8.63634227 11.3232082,8.48083711 11.0465897,8.39902268 C10.7621773,8.31877526 10.3481567,8.24054845 9.94197113,8.1607134 C9.53421856,8.0730433 9.14366186,7.99003299 8.90287835,7.88467216 C8.76056907,7.82425979 8.64329072,7.76689897 8.53698144,7.72351753 C8.43846598,7.67856907 8.34316701,7.64920825 8.25735258,7.66669278 C8.17153814,7.68413608 8.09524948,7.74842474 8.02213608,7.82825979 C7.94902268,7.90813608 7.86349691,8.00677526 7.74832165,8.11955876 C7.56007423,8.31221856 7.24073402,8.53964124 6.89966186,8.77964124 C6.55854845,9.01968247 6.20642474,9.24562062 5.97599175,9.43065155 C5.74395052,9.60780619 5.63541443,9.83300206 5.58452784,10.0220742 C5.5579299,10.0112701 5.52357938,10.0019918 5.49858969,9.99894021 C5.40485773,9.9773732 5.31108454,9.95584742 5.21417732,9.91869278 C5.05628041,9.86145567 4.89986804,9.77143505 4.76329072,9.53922887 C4.53689897,9.06541443 4.36498144,8.53984742 4.25228041,7.98595052 C4.20465155,7.7519299 4.16646598,7.52413608 4.1438268,7.29316701 C5.03735258,7.45254845 6.31001237,7.51856907 8.15879588,7.14244536 C9.92180619,6.78372371 11.1016825,6.19436289 11.871332,5.7047134" id="Fill-117" fill="#9C7041"></path>
            <path d="M11.0636454,4.1305567 C11.1088412,4.11323711 11.1243464,4.06948454 11.1335835,4.03509278 C11.2418722,4.208 11.3455423,4.39814433 11.4336247,4.59146392 C10.8152742,5.02593814 9.42908866,5.55983505 7.90009897,5.8708866 C6.43354227,6.16927835 4.81172784,6.26362887 4.12286186,6.15195876 C4.13304742,5.92243299 4.16038763,5.69752577 4.1971299,5.47880412 C4.23007835,5.52086598 4.27222268,5.52853608 4.32525361,5.50960825 C4.36265567,5.49389691 4.40471753,5.46094845 4.43737732,5.42181443 C4.47003711,5.38268041 4.51828454,5.34037113 4.55873814,5.29962887 C4.59919175,5.25892784 4.63964536,5.21818557 4.6739134,5.18684536 C4.70814021,5.15550515 4.7393567,5.14915464 4.76273814,5.14437113 C4.7705732,5.14280412 4.78772784,5.14742268 4.80348041,5.18486598 C4.8270268,5.22070103 4.83811959,5.27529897 4.85543918,5.32049485 C4.8916866,5.41876289 4.95923299,5.55121649 5.1262433,5.53348454 C5.29164536,5.50795876 5.41618144,5.40140206 5.50954227,5.30115464 C5.55622268,5.25105155 5.59667629,5.21035052 5.64649072,5.17583505 C5.68855258,5.1428866 5.71816082,5.12874227 5.75094433,5.13018557 C5.77593402,5.13323711 5.81032577,5.14247423 5.85886186,5.18136082 C5.9073567,5.22020619 5.95906804,5.27472165 6.00921237,5.32136082 C6.11882062,5.42094845 6.2550268,5.53129897 6.41725361,5.49018557 C6.62005773,5.44890722 6.72265567,5.31430928 6.80661443,5.20787629 C6.82525361,5.17971134 6.84545979,5.15934021 6.86414021,5.13117526 C6.88434639,5.11080412 6.90298557,5.08263918 6.91700619,5.0716701 C6.95906804,5.03876289 6.99490309,5.01521649 7.04950103,5.00412371 C7.11345979,4.99921649 7.16504742,5.01307216 7.21040825,5.03637113 C7.23700619,5.04721649 7.25733608,5.06742268 7.27770722,5.08762887 C7.30587216,5.10630928 7.3262433,5.12651546 7.35597526,5.15294845 L7.39671753,5.19340206 C7.51717113,5.26639175 7.65482062,5.344 7.86541856,5.30115464 C8.01366598,5.27101031 8.08504742,5.14272165 8.14240825,5.02548454 L8.15948041,4.98948454 C8.17032577,4.96292784 8.18896495,4.93476289 8.20603711,4.89880412 C8.21684124,4.87220619 8.23548041,4.84404124 8.24793402,4.82527835 C8.28059381,4.78614433 8.32104742,4.74540206 8.38343918,4.73270103 C8.4364701,4.71381443 8.48644948,4.71987629 8.53181031,4.74313402 C8.55836701,4.75397938 8.58496495,4.76482474 8.60372784,4.77727835 C8.63189278,4.79587629 8.65844948,4.80672165 8.68661443,4.82540206 C8.80706804,4.89835052 8.94471753,4.97595876 9.1553567,4.9331134 C9.31919175,4.89979381 9.39358351,4.7465567 9.45717113,4.61987629 C9.4742433,4.58391753 9.48508866,4.55731959 9.50216082,4.52136082 C9.51296495,4.49480412 9.53003711,4.45880412 9.54088247,4.43224742 C9.57036701,4.37748454 9.5968,4.34775258 9.62640825,4.33360825 C9.65605773,4.31946392 9.69663505,4.31929897 9.74822268,4.33319588 C9.79976907,4.34705155 9.85292371,4.36874227 9.91387216,4.38886598 C10.0295835,4.43843299 10.1764701,4.48164948 10.3386969,4.44053608 C10.4993155,4.39158763 10.5207588,4.25723711 10.5297485,4.14169072 C10.5327588,4.11670103 10.5342433,4.08391753 10.5372536,4.05892784 C10.5403052,4.03393814 10.5433567,4.00894845 10.5479753,3.99175258 C10.5556454,3.94956701 10.5742845,3.92140206 10.6038928,3.90725773 C10.6194804,3.90408247 10.6351093,3.90090722 10.671068,3.91797938 C10.6898722,3.93039175 10.7086351,3.94280412 10.7273979,3.95525773 C10.7461608,3.9676701 10.766532,3.98791753 10.7930887,3.99876289 C10.8322639,4.03142268 10.8807588,4.07026804 10.9261608,4.09356701 C10.951233,4.13715464 11.0121814,4.15723711 11.0636454,4.1305567" id="Fill-119" fill="#9C7041"></path>
        </g>
    </g>
</svg>