<?xml version="1.0" encoding="UTF-8"?>
<svg width="145px" height="70px" viewBox="0 0 145 70" version="1.1" xmlns="http://www.w3.org/2000/svg" xmlns:xlink="http://www.w3.org/1999/xlink">
    <!-- Generator: Sketch 51 (57462) - http://www.bohemiancoding.com/sketch -->
    <title>Group 160</title>
    <desc>Created with Sketch.</desc>
    <defs>
        <polygon id="path-1" points="0.0475225676 0.0460344828 5.77851192 0.0460344828 5.77851192 5.69166862 0.0475225676 5.69166862"></polygon>
        <polygon id="path-3" points="0 0.0664591033 3.67089208 0.0664591033 3.67089208 6.23422993 0 6.23422993"></polygon>
        <polygon id="path-5" points="0 69.9539655 144.901897 69.9539655 144.901897 0.172413793 0 0.172413793"></polygon>
    </defs>
    <g id="Page-1" stroke="none" stroke-width="1" fill="none" fill-rule="evenodd">
        <g id="Group-160">
            <path d="M40.2624828,59.7581207 C33.8045517,61.0720862 27.6692069,59.2972586 22.6633448,55.5605345 L25.9124828,51.1632931 C29.8188621,54.0027759 34.5228276,55.2536379 39.1869655,54.3046724 C43.8183448,53.362431 47.6271379,50.3796724 50.120069,46.2720862 L54.8290345,49.0503621 C51.6417931,54.4200172 46.7204138,58.4443276 40.2624828,59.7581207" id="Fill-1" fill="#C7872A"></path>
            <path d="M26.7273276,13.4312586 L26.6035345,13.4903966 C24.0731897,14.2429828 21.8569828,15.2033276 20.1959483,16.220569 L20.0068103,16.2931552 L24.8975,12.7847069 L26.7273276,13.4312586 Z" id="Fill-3" fill="#C7872A"></path>
            <path d="M61.7225172,17.6559828 C61.1297586,16.0783966 61.379069,14.4651207 62.3176897,14.0704655 C63.2563103,13.6756379 64.5130345,14.6766724 65.1056207,16.254431 C65.6983793,17.8320172 65.4492414,19.4452931 64.5104483,19.8399483 C63.5652759,20.2021897 62.3152759,19.2337414 61.7225172,17.6559828" id="Fill-5" fill="#EB4724"></path>
            <path d="M51.3450345,8.21894828 C50.2957241,6.73412069 50.1722759,4.95912069 51.0512414,4.27084483 C51.9302069,3.58239655 53.4858966,4.21705172 54.541931,5.73446552 C55.591069,7.2192931 55.7145172,8.9942931 54.8355517,9.68256897 C53.9500345,10.3382586 52.3943448,9.70377586 51.3450345,8.21894828" id="Fill-7" fill="#F37920"></path>
            <g id="Group-11" transform="translate(38.793103, 0.126379)">
                <mask id="mask-2" fill="white">
                    <use xlink:href="#path-1"></use>
                </mask>
                <g id="Clip-10"></g>
                <path d="M1.5937931,4.64975862 C0.192931034,3.44027586 -0.367758621,1.68631034 0.379655172,0.684931034 C1.09431034,-0.309551724 2.8312069,-0.119551724 4.23224138,1.09010345 C5.63310345,2.29941379 6.1937931,4.05355172 5.44637931,5.05475862 C4.73172414,6.04924138 3.02724138,5.85268966 1.5937931,4.64975862" id="Fill-9" fill="#FFCF47" mask="url(#mask-2)"></path>
            </g>
            <path d="M54.1402759,48.0016552 C55.369069,46.5288966 56.6101034,44.782 57.8825172,42.689069 C64.8876897,31.2097586 62.4961379,20.6235517 62.4961379,20.6235517 C62.4961379,20.6235517 66.1114828,20.3633793 66.5113103,22.8295862 C66.9437241,25.289069 67.5904483,33.3092414 60.3635517,42.8633793 C58.7063103,45.0687241 56.7671724,46.889931 54.8009655,48.4107931 L54.1402759,48.0016552 Z" id="Fill-12" fill="#0C4220"></path>
            <path d="M50.6281034,45.931 C51.8463793,43.2377241 52.7422414,39.7946207 53.0084483,35.4268621 C53.3910345,28.7935862 53.0760345,18.3961724 42.797931,7.44444828 C43.4601724,6.35858621 45.8410345,5.87427586 47.6467241,7.06927586 C49.4522414,8.26444828 55.9687931,16.7546207 56.2606897,28.0397931 C56.4281034,33.2027241 54.9248276,40.5054828 51.4258621,46.3461724 L51.3998276,46.3854828 L50.6281034,45.931 Z" id="Fill-14" fill="#0C4220"></path>
            <path d="M52.4004828,46.9631379 C54.0820345,44.2093448 55.6168621,40.5684828 56.7499655,35.7865862 C60.3035862,20.8657241 53.1772069,11.5484828 53.1772069,11.5484828 C53.1772069,11.5484828 55.7234138,9.70572414 57.2958276,11.4238276 C58.868069,13.141931 63.9135862,22.9164138 59.5316897,36.1036552 C57.9028966,40.9526207 55.5846207,44.5829655 53.0870345,47.3329655 L52.4004828,46.9631379 Z" id="Fill-16" fill="#3B7337"></path>
            <path d="M34.3594138,11.8785172 L35.7911379,10.5681724 L41.6637241,11.8869655 L41.5985517,11.900069 C39.6068276,11.6261034 37.1588966,11.6147241 34.4638966,11.8912759 L34.3594138,11.8785172 Z" id="Fill-18" fill="#9C7041"></path>
            <path d="M29.8997241,9.49117241 C31.9871379,9.06651724 34.0011034,10.1172069 34.3593793,11.8785862 C33.1326552,12.0261724 31.8474828,12.2197931 30.5428276,12.4851379 C29.2055862,12.7572069 27.9467931,13.0813448 26.7598966,13.4246207 C26.3755862,11.7027241 27.8123103,9.91582759 29.8997241,9.49117241" id="Fill-20" fill="#C7872A"></path>
            <g id="Group-24" transform="translate(0.000000, 26.333276)">
                <mask id="mask-4" fill="white">
                    <use xlink:href="#path-3"></use>
                </mask>
                <g id="Clip-23"></g>
                <path d="M3.66637931,3.13439655 C3.59551724,1.45043103 2.73586207,0.0630172414 1.71758621,0.0664655172 C0.699310345,0.0697413793 -0.0663793103,1.48215517 0.00448275862,3.16612069 C0.0753448276,4.85008621 0.935172414,6.2375 1.95344828,6.23422414 C2.965,6.19818966 3.73724138,4.81836207 3.66637931,3.13439655" id="Fill-22" fill="#EB4724" mask="url(#mask-4)"></path>
            </g>
            <path d="M9.66205172,16.6994655 C10.0477414,14.9227414 9.46774138,13.2405 8.38981034,12.9503276 C7.3117069,12.6601552 6.12774138,13.8520517 5.74860345,15.6615345 C5.36274138,17.4382586 5.94291379,19.1205 7.02084483,19.4106724 C8.09222414,19.6682586 9.27636207,18.4761897 9.66205172,16.6994655" id="Fill-25" fill="#F37920"></path>
            <path d="M18.3059828,9.2685 C19.1228793,7.60781034 18.9209828,5.78074138 17.8746034,5.14453448 C16.8280517,4.50832759 15.3033966,5.36194828 14.4865,7.02263793 C13.669431,8.68332759 13.8387414,10.5171207 14.9178793,11.1466034 C15.964431,11.7828103 17.4890862,10.9291897 18.3059828,9.2685" id="Fill-27" fill="#FFCF47"></path>
            <path d="M22.3548448,55.0458621 C19.8853621,54.4274138 17.3495,53.482931 14.9231207,52.0744828 C4.51156897,46.1427586 2.0057069,38.5008621 1.41018966,36.0744828 C0.847258621,33.6415517 4.27691379,32.4682759 4.27691379,32.4682759 C4.27691379,32.4682759 6.21191379,43.1474138 17.1453621,50.9768966 C19.1738103,52.4324138 21.0379483,53.5815517 22.7770862,54.4505172 L22.3548448,55.0458621 Z" id="Fill-29" fill="#0C4220"></path>
            <path d="M24.6681207,51.8919138 L24.5110517,51.7879483 C19.0081207,47.7788103 14.7710517,41.6439828 12.9077759,36.8262241 C8.76708621,26.3241552 11.4548448,15.9950172 12.6432931,14.1569138 C13.8382931,12.3513966 16.1867414,11.8736379 17.2531207,12.6076034 C12.0712241,26.7048448 15.8436379,36.3988103 18.7877759,42.3551897 C20.7595,46.3696724 22.9686379,49.2148448 25.1750172,51.211569 L24.6681207,51.8919138 Z" id="Fill-31" fill="#0C4220"></path>
            <path d="M23.5244483,53.4493621 C20.1184138,51.900569 16.4941034,49.4450517 13.0868621,45.5529828 C3.86789655,35.1329828 4.69324138,24.1638448 5.50186207,21.961431 C6.27789655,19.765569 9.34168966,20.4669483 9.34168966,20.4669483 C9.34168966,20.4669483 6.41565517,31.7953966 15.491,44.1807414 C18.4482414,48.1985 21.3228966,50.9760862 23.9794483,52.8472931 L23.5244483,53.4493621 Z" id="Fill-33" fill="#3B7337"></path>
            <path d="M30.9011207,14.246431 C37.6199138,12.8795345 43.2459483,12.6519483 43.4716379,13.7609138 C43.6971552,14.8698793 38.429569,16.8585 31.7106034,18.225569 C24.9918103,19.5924655 19.3657759,19.8200517 19.1402586,18.7112586 C18.914569,17.6021207 24.1823276,15.6133276 30.9011207,14.246431" id="Fill-35" fill="#492E18"></path>
            <path d="M41.2549483,61.7979483 C42.4932241,61.2063966 45.2566724,59.9308793 47.2633966,58.7753621 C50.3065,57.2051897 53.7101207,56.0712241 57.3592586,56.1439828 C55.7283966,54.4717414 53.7287414,53.8257069 52.5666724,53.7903621 C52.5340862,53.7970862 52.794431,53.5741552 52.794431,53.5741552 C53.1013276,53.5796724 53.538569,53.5586379 54.6232241,53.8813966 C56.2828793,54.3589828 58.0104655,55.6719138 59.1692586,56.6927759 C59.4832241,56.9007069 59.8497759,57.1996724 60.2228793,57.5313966 C52.6127069,55.8529483 44.003569,61.9520862 44.003569,61.9520862 L44.3568448,62.1858793 C52.049431,57.2581207 57.8723621,57.3301897 60.4258103,57.6938103 C60.8775345,58.077431 61.3423621,58.5262241 61.8858103,59.0272586 C52.7815,57.5169138 45.3713276,62.9984655 45.3713276,62.9984655 L45.6852931,63.2063966 C52.7008103,58.7900172 59.1632241,58.8339828 62.0428793,59.1310517 C62.4227069,59.4953621 62.8677069,59.8463966 63.2868448,60.236569 L63.2542586,60.2431207 C55.2392586,58.5791552 47.1032241,63.6650172 45.7356379,64.6226034 C44.4730517,63.7586379 42.0333966,62.2850172 41.2549483,61.7979483" id="Fill-37" fill="#8B6427"></path>
            <polygon id="Fill-39" fill="#C7872A" points="33.6041724 10.5036724 38.6971034 6.98798276 35.791069 10.5683276"></polygon>
            <polygon id="Fill-41" fill="#9C7041" points="38.6970345 6.98805172 33.6041034 10.5037414 34.0744483 8.64184483"></polygon>
            <path d="M19.0337759,69.2740517 C19.2996379,68.7443966 19.5396379,68.2540517 19.7468793,67.7702586 C22.2813621,66.3714655 28.1803276,63.8126724 36.3963621,65.1300862 L36.6042931,64.8161207 C36.6042931,64.8161207 27.6413621,62.6656034 19.8506724,67.6131897 C20.1618793,66.9725 20.4144655,66.3776724 20.6737759,65.815431 C22.8822241,64.4830172 28.2139483,62.1416379 37.2205,63.6718103 L37.4542931,63.3185345 C37.4542931,63.3185345 27.1463621,61.0680172 20.8296379,65.5799138 C21.0436034,65.1288793 21.2641207,64.7102586 21.4720517,64.3962931 C22.1396379,63.0037069 23.1844655,61.1268103 24.5580862,60.0321552 C25.4303276,59.3112931 25.8803276,59.1857759 26.1213621,59.0347414 L26.4155,59.1449138 C25.3663621,59.6640517 23.7715345,61.0075 22.9236034,63.1838793 C26.247569,61.6585345 29.8303276,61.4050862 33.2451552,61.6614655 C35.5437759,61.9409483 38.5599828,62.074569 39.9568793,62.0959483 C39.4306724,62.8483621 37.7541207,65.1256034 36.9686034,66.4402586 C35.2703276,66.1064655 25.7546379,64.5780172 19.0337759,69.2740517" id="Fill-43" fill="#8B6427"></path>
            <polygon id="Fill-45" fill="#C7872A" points="32.0213793 9.56894828 35.0205172 2.60722414 34.0744828 8.64187931"></polygon>
            <polygon id="Fill-47" fill="#9C7041" points="35.0205172 2.60715517 32.0213793 9.56887931 31.1665517 7.70491379"></polygon>
            <polygon id="Fill-49" fill="#C7872A" points="28.1146207 0.717517241 31.1666897 7.70493103 29.9063448 9.52372414"></polygon>
            <polygon id="Fill-51" fill="#9C7041" points="28.1146207 0.717517241 29.9063448 9.52372414 28.0028966 8.34855172"></polygon>
            <polygon id="Fill-53" fill="#9C7041" points="25.7248276 10.3405172 22.4960345 5.15534483 27.977069 10.3917241"></polygon>
            <polygon id="Fill-55" fill="#C7872A" points="27.977069 10.3917931 22.4960345 5.15524138 28.002931 8.34851724"></polygon>
            <path d="M30.3597069,57.6630517 C30.3597069,57.6630517 30.6147069,57.7470172 30.6997069,57.8316724 C30.7848793,57.9163276 29.931431,58.3954655 29.931431,58.3954655 C29.931431,58.3954655 29.8202241,58.3501207 29.7676379,58.2590862 C29.7543621,58.1937414 30.3597069,57.6630517 30.3597069,57.6630517 M34.7219483,56.2320172 C34.7545345,56.2254655 34.4428103,56.6965 34.4167759,56.7356379 C34.3907414,56.7751207 34.3122931,56.7230517 34.1752241,56.7170172 C34.0381552,56.7109828 33.6202241,56.6601207 33.6202241,56.6601207 C33.6202241,56.6601207 33.4272931,57.5483966 33.3886724,57.6921897 C33.3498793,57.8359828 33.3122931,58.3190862 33.286431,58.3582241 C33.2603966,58.3975345 33.1172931,58.5287414 33.0260862,58.5811552 C32.9022931,58.6402931 32.7717759,58.6668448 32.7978103,58.6275345 C32.8103966,58.5230517 32.9585,57.9154655 32.990569,57.7390862 C33.0226379,57.5628793 33.2283276,56.5699483 33.2283276,56.5699483 C33.2283276,56.5699483 32.4835,56.4158103 32.4117759,56.3963276 C32.3398793,56.3770172 32.3852241,56.2658103 32.4957414,56.1416724 C32.6062586,56.0171897 32.7693621,55.9840862 32.906431,55.9901207 C33.0435,55.9961552 33.5400517,56.0989138 33.9253966,56.1565 C34.3107414,56.2139138 34.6893621,56.2387414 34.7219483,56.2320172 M35.100569,56.2570172 C35.1591897,56.2109828 35.1338448,56.4199483 35.1343621,56.5896034 C35.1416034,56.7920172 35.110569,57.3077069 35.110569,57.3077069 C35.110569,57.3077069 36.0378103,57.3570172 36.1029828,57.343569 C36.0962586,57.3111552 36.1135,56.5602931 36.1586724,56.4492586 C36.2040172,56.3380517 36.3147069,56.2137414 36.3731552,56.1678793 C36.4317759,56.1220172 36.5888448,56.2258103 36.6279828,56.2518448 C36.6740172,56.3104655 36.6567759,57.0611552 36.6574655,57.2308103 C36.6579828,57.4006379 36.6612586,58.4189138 36.6293621,58.5952931 C36.5972931,58.7716724 36.3562586,58.9225345 36.2191897,58.9165 C36.0819483,58.9102931 36.1207414,58.7666724 36.1400517,58.6947759 C36.1593621,58.6228793 36.1566034,57.774431 36.1566034,57.774431 C36.1566034,57.774431 35.1902241,57.6992586 35.1250517,57.7125345 C35.086431,57.8561552 35.1145345,58.4958103 35.0952241,58.5677069 C35.0759138,58.6396034 34.7762586,58.8365 34.7436724,58.8430517 C34.7110862,58.8497759 34.7431552,58.6732241 34.7298793,58.6080517 C34.7166034,58.5428793 34.7921207,57.7461552 34.7850517,57.5439138 C34.7778103,57.3416724 34.8016034,56.623569 34.8141897,56.5189138 C34.8402241,56.4797759 35.0093621,56.309431 35.100569,56.2570172 M37.6933276,56.6465 C37.6933276,56.6465 37.6497069,57.2668448 37.6629828,57.3320172 C37.7348793,57.3513276 38.0743621,57.3502931 38.2440172,57.3497759 C38.5116034,57.3290862 38.8376379,57.2628793 38.8769483,57.2887414 C38.8769483,57.2887414 39.0207414,57.3275345 38.8974655,57.5563276 C38.7416034,57.7918448 38.5066034,57.8056379 38.3043621,57.8128793 C38.1019483,57.8201207 37.6907414,57.8020172 37.6907414,57.8020172 C37.6907414,57.8020172 37.6790172,58.2458103 37.6922931,58.3111552 C37.705569,58.3763276 37.8686724,58.3430517 38.0057414,58.3490862 C38.1429828,58.3552931 38.9129828,58.3004655 38.9781552,58.2871897 C39.0435,58.2739138 39.1021207,58.2280517 39.1219483,58.3259828 C39.1419483,58.4237414 39.0445345,58.6133966 38.8621207,58.7183966 C38.6797069,58.8233966 38.0921207,58.7730517 37.9222931,58.7737414 C37.7526379,58.7742586 37.4590172,58.8340862 37.380569,58.7820172 C37.3086724,58.7627069 37.3335,58.3840862 37.3395345,58.2470172 C37.3457414,58.1099483 37.3086724,56.7587414 37.3147069,56.6216724 C37.3207414,56.4846034 37.3786724,56.2689138 37.5091897,56.2425345 C37.6657414,56.1766724 38.0769483,56.1947759 38.2074655,56.1682241 C38.3378103,56.1418448 38.7033276,56.1013276 38.7685,56.0880517 C38.8336724,56.0747759 38.9709138,56.0808103 38.9581552,56.1854655 C38.9388448,56.2573621 38.7503966,56.499431 38.5872931,56.5325345 C38.4174655,56.5330517 37.6933276,56.6465 37.6933276,56.6465 M41.5000517,56.9928793 C41.5000517,56.9928793 41.8129828,56.8613276 41.9953966,56.7561552 C42.1452241,56.6578793 42.3143621,56.4877069 42.3397069,56.2787414 C42.3717759,56.1021897 42.3060862,55.9458103 42.1490172,55.8418448 C41.9460862,55.679431 41.6200517,55.7458103 41.5221207,55.7656379 C41.4241897,55.7854655 41.2678103,55.8513276 41.1766034,55.9039138 C41.2490172,56.0930517 41.5000517,56.9928793 41.5000517,56.9928793 M41.471431,58.1875345 C41.4388448,58.1942586 41.2938448,57.8161552 41.1419483,57.2356379 C40.9831552,56.6225345 40.7852241,55.983569 40.7519483,55.8202931 C40.7188448,55.6573621 40.7774655,55.6115 40.8360862,55.5656379 C40.8947069,55.5196034 41.3053966,55.3680517 41.4291897,55.3090862 C41.5597069,55.2823621 42.0097069,55.1570172 42.2319483,55.2475345 C42.421431,55.3449483 42.6576379,55.6704655 42.6260862,56.0165 C42.5945345,56.3627069 42.4847069,56.6566724 42.2309138,56.9121897 C41.970569,57.1349483 41.6836724,57.2273621 41.6183276,57.2406379 C41.6383276,57.3383966 41.7372931,57.6580517 41.750569,57.7232241 C41.7245345,57.7623621 41.7516034,58.0625345 41.471431,58.1875345 M44.1407414,54.1120172 C44.2971207,54.0461552 44.1943621,54.5425345 44.1683276,54.5820172 C44.1490172,54.6537414 43.7516034,54.8706379 43.6603966,54.9228793 C43.5691897,54.9754655 43.1717759,55.1923621 43.1717759,55.1923621 C43.1717759,55.1923621 43.3103966,55.7075345 43.3497069,55.733569 C43.3562586,55.7661552 43.6366034,55.6409828 43.7931552,55.5754655 C43.9169483,55.5161552 44.4902241,55.1618448 44.5486724,55.1159828 C44.6072931,55.0701207 44.6726379,55.0568448 44.6859138,55.1220172 C44.6990172,55.1873621 44.6090172,55.5790862 44.5831552,55.618569 C44.5571207,55.6577069 44.3028103,55.7433966 44.2767759,55.7827069 C44.2441897,55.7892586 43.970569,55.9468448 43.9052241,55.9601207 C43.8467759,56.0059828 43.6057414,56.1570172 43.6122931,56.1896034 C43.625569,56.2547759 43.9340172,56.769431 43.9340172,56.769431 C43.9340172,56.769431 44.0319483,56.749431 44.1231552,56.6968448 C44.2143621,56.644431 44.4947069,56.519431 44.6445345,56.4211552 C44.8335,56.3487414 44.9507414,56.2570172 45.0026379,56.1783966 C45.0612586,56.1325345 45.1331552,56.1518448 45.1398793,56.184431 C45.146431,56.2170172 45.036431,56.5111552 45.0103966,56.5504655 C44.9910862,56.6223621 44.8086724,56.7273621 44.6848793,56.7865 C44.5610862,56.8456379 44.215569,56.9839138 44.1569483,57.0297759 C44.0983276,57.0756379 43.8572931,57.2266724 43.7921207,57.2399483 C43.7267759,57.2532241 43.4310862,56.6339138 43.4243621,56.6015 C43.4110862,56.5361552 43.2209138,56.2690862 43.2076379,56.2039138 C43.1617759,56.1452931 43.1021207,55.8518448 43.0821207,55.7539138 C43.0688448,55.6887414 42.7935,55.3371897 42.7736724,55.2392586 C42.7603966,55.1739138 42.8057414,55.0628793 42.8771207,54.9125345 C42.9483276,54.7621897 42.9743621,54.7228793 43.0328103,54.6771897 C43.4110862,54.5321897 43.6260862,54.4204655 43.8410862,54.3089138 C44.0302241,54.2365 44.0821207,54.1578793 44.1407414,54.1120172 M45.1402241,54.3501207 C45.1402241,54.3501207 45.246431,54.8721897 45.4885,55.0604655 C45.730569,55.2490862 46.0767759,55.2806379 46.4028103,55.2142586 C46.7290172,55.1478793 46.8136724,55.0627069 46.865569,54.9842586 C46.8848793,54.9123621 46.8379828,54.5142586 46.8179828,54.4165 C46.7981552,54.3187414 46.5100517,54.0715 46.2812586,53.9482241 C46.0197069,53.8315 45.6083276,53.8133966 45.4453966,53.8465 C45.2628103,53.9516724 45.1402241,54.3501207 45.1402241,54.3501207 M44.9898793,54.2789138 C44.9633276,54.1483966 44.9295345,53.8158103 45.1572931,53.5996034 C45.3524655,53.3899483 45.5022931,53.2916724 45.6719483,53.2911552 C45.8350517,53.2577069 46.1159138,53.3025345 46.3840172,53.4518448 C46.6588448,53.6337414 46.8616034,53.7961552 46.921431,54.0896034 C46.9810862,54.3833966 47.0347069,54.8139138 47.0679828,54.9770172 C47.0685,55.1466724 47.0695345,55.4861552 46.9590172,55.6106379 C46.8485,55.7349483 46.6660862,55.8399483 46.3659138,55.8670172 C46.0983276,55.8875345 45.791431,55.8820172 45.6671207,55.7715 C45.5428103,55.6609828 45.2872931,55.4071897 45.1817759,55.0551207 C45.0693621,54.6704655 45.016431,54.409431 44.9898793,54.2789138 M46.9886724,52.7515 C47.0545345,52.9078793 47.6047069,53.4413276 47.6371207,53.4346034 C47.6698793,53.4280517 47.8322931,53.2251207 47.8843621,53.1466724 C47.9362586,53.0682241 48.131431,52.858569 48.1048793,52.7280517 C48.0783276,52.5975345 47.8102241,52.4483966 47.6145345,52.4880517 C47.4448793,52.4887414 47.2424655,52.4959828 46.9886724,52.7515 M46.5436724,52.4004655 C46.5303966,52.3351207 46.6481552,52.4130517 46.7200517,52.4323621 C46.7786724,52.3865 47.0129828,52.2030517 47.221431,52.058569 C47.4298793,51.9142586 47.6974655,51.8939138 47.8410862,51.9327069 C47.9848793,51.9711552 48.2203966,52.1271897 48.2928103,52.3161552 C48.3652241,52.5052931 48.3016034,53.0277069 48.2822931,53.0996034 C48.2629828,53.1713276 47.9186724,53.6490862 47.8407414,53.7668448 C48.0109138,53.9359828 48.2929828,54.3201207 48.3128103,54.4180517 C48.3328103,54.5158103 48.3200517,54.6204655 48.1895345,54.6470172 C48.0591897,54.6733966 48.0259138,54.5104655 47.8557414,54.3411552 C47.6853966,54.1720172 47.2071207,53.6580517 47.1153966,53.5408103 C47.0235,53.423569 46.7941897,53.1306379 46.7416034,53.039431 C46.6890172,52.9480517 46.5647069,52.8377069 46.5581552,52.8049483 C46.4795345,52.7530517 46.5243621,52.4723621 46.5436724,52.4004655 M48.0743621,51.4096034 C48.0352241,51.383569 48.0545345,51.3116724 48.0672931,51.2073621 C48.0798793,51.1027069 48.1710862,51.0502931 48.2103966,51.0763276 C48.2822931,51.0956379 48.5769483,51.3752931 48.6619483,51.4597759 C48.7471207,51.544431 49.781431,52.4549483 49.8209138,52.4808103 C49.8600517,52.5068448 50.0033276,52.3758103 50.0878103,52.2906379 C50.1397069,52.2121897 50.6726379,51.4923621 50.7245345,51.4139138 C50.776431,51.3354655 50.9129828,51.1718448 50.9590172,51.2302931 C50.9983276,51.2563276 51.0910862,51.7128793 51.0652241,51.7521897 C51.0391897,51.7913276 50.8959138,51.9223621 50.8181552,52.0402931 C50.7402241,52.1578793 50.3371207,52.6815 50.2524655,52.7666724 C50.1747069,52.884431 49.985569,52.9568448 49.9203966,52.9701207 C49.8550517,52.9832241 49.7240172,52.8401207 49.6781552,52.7816724 C49.6388448,52.7556379 49.0169483,52.2028793 48.8926379,52.0921897 C48.7422931,52.0209828 48.1136724,51.4356379 48.0743621,51.4096034 M50.4136724,48.2165 C50.4397069,48.1770172 50.5574655,48.2551207 50.6231552,48.4115 C50.6890172,48.5680517 50.5852241,48.7249483 50.5331552,48.8033966 C50.4812586,48.8820172 49.9681552,49.6996034 49.9162586,49.7782241 L50.4331552,50.148569 C50.4331552,50.148569 50.7448793,49.6775345 50.8035,49.6316724 C50.8295345,49.5921897 51.1798793,48.9775345 51.2452241,48.9642586 C51.3103966,48.9511552 51.4098793,49.4402931 51.4166034,49.4728793 C51.4231552,49.5056379 50.9036724,50.2904655 50.7931552,50.4149483 C50.9700517,50.6166724 51.3491897,50.8113276 51.4403966,50.7587414 C51.5316034,50.7061552 51.8693621,50.1958103 51.9279828,50.1501207 C52.0319483,49.9930517 52.226431,49.6137414 52.3043621,49.4961552 C52.356431,49.4175345 52.4952241,49.9327069 52.5017759,49.9654655 C52.5085,49.9980517 52.0860862,50.5933966 51.9562586,50.7897759 C51.8262586,50.9858103 51.520569,51.3199483 51.4553966,51.3330517 C51.4228103,51.3397759 50.8533276,50.8780517 50.7748793,50.8263276 C50.696431,50.7742586 50.2447069,50.3906379 50.2053966,50.3646034 C50.0876379,50.2868448 49.7278103,50.0202931 49.6491897,49.9683966 C49.6033276,49.9097759 49.5895345,49.6747759 49.615569,49.6354655 C49.641431,49.5963276 49.7779828,49.4327069 49.8493621,49.2823621 C49.9272931,49.1646034 50.1545345,48.7787414 50.206431,48.7001207 C50.1866034,48.6021897 50.3878103,48.2556379 50.4136724,48.2165 M26.1741897,53.2839138 C26.3371207,53.2506379 26.3316034,53.5575345 26.3188448,53.6620172 C26.3128103,53.7990862 26.2040172,54.4327069 26.1786724,54.6416724 L26.0962586,55.4056379 C26.0962586,55.4056379 26.3633276,55.2154655 26.4998793,55.0516724 C26.6690172,54.8815 27.1438448,54.3771897 27.1698793,54.3380517 C27.1891897,54.2661552 27.2478103,54.2202931 27.4041897,54.154431 C27.560569,54.0887414 27.6324655,54.1080517 27.6131552,54.1799483 C27.6197069,54.2125345 27.5617759,54.4280517 27.5424655,54.4999483 C27.5622931,54.5978793 27.4362586,55.9821897 27.4169483,56.0539138 C27.5016034,55.9689138 28.1909138,55.1832241 28.301431,55.0589138 C28.4119483,54.934431 28.5226379,54.8101207 28.646431,54.7508103 C28.8028103,54.6851207 28.9072931,54.6978793 28.920569,54.7630517 C28.9338448,54.8283966 28.5695345,55.2082241 28.4657414,55.3651207 C28.3291897,55.5287414 27.5938448,56.2558103 27.5159138,56.373569 C27.4053966,56.4978793 27.1776379,56.7140862 27.1450517,56.7206379 C27.1124655,56.7271897 26.9360862,56.6952931 26.8969483,56.6692586 C26.8576379,56.6433966 26.9410862,56.2187414 26.9210862,56.1209828 C26.9338448,56.0163276 27.0150517,54.9130517 27.0017759,54.8477069 C26.9691897,54.854431 26.0647069,55.7516724 25.9802241,55.8368448 C25.9283276,55.9152931 25.5109138,56.0342586 25.4783276,56.0408103 C25.4457414,56.0475345 25.5036724,55.8318448 25.5357414,55.6554655 C25.5678103,55.4790862 25.6119483,55.028569 25.6567759,54.7478793 C25.701431,54.4670172 25.7457414,54.0165 25.7517759,53.8792586 C25.7578103,53.7421897 25.7833276,53.5332241 25.8678103,53.4480517 C25.9850517,53.3563276 26.1348793,53.2578793 26.1741897,53.2839138 M29.4121207,55.3423621 L29.1202241,55.9113276 C29.1202241,55.9113276 30.1860862,56.4756379 30.2319483,56.5342586 C30.2712586,56.5602931 30.121431,56.658569 29.9390172,56.763569 C29.7566034,56.8687414 29.671431,56.7840862 29.5995345,56.7647759 C29.5276379,56.7454655 28.8410862,56.3756379 28.8410862,56.3756379 C28.8410862,56.3756379 28.5098793,56.918569 28.5491897,56.944431 C28.5952241,57.0030517 29.5819483,57.3458103 29.7974655,57.4037414 C30.0197069,57.494431 29.9219483,57.514431 29.6809138,57.6652931 C29.4398793,57.8163276 29.3612586,57.7642586 29.2828103,57.7123621 C29.1717759,57.6668448 28.3940172,57.3497759 28.3153966,57.2977069 C28.2435,57.278569 28.0147069,57.1551207 28.040569,57.1158103 C28.0733276,57.1092586 28.4429828,56.4227069 28.5143621,56.2723621 C28.5922931,56.154431 28.9167759,55.5789138 28.9360862,55.5071897 C28.9553966,55.4352931 29.1566034,55.088569 29.2152241,55.0428793 C29.2412586,55.0033966 29.4302241,54.9309828 29.5088448,54.9830517 C29.580569,55.0023621 30.0317759,55.2163276 30.2540172,55.3070172 C30.4697069,55.3649483 30.8748793,55.5202931 30.881431,55.5528793 C30.8621207,55.6247759 30.5493621,55.7563276 30.490569,55.8021897 C30.4253966,55.8154655 30.2750517,55.7442586 30.1247069,55.6728793 C29.9743621,55.6016724 29.4121207,55.3423621 29.4121207,55.3423621" id="Fill-57" fill="#492F18"></path>
            <polygon id="Fill-59" fill="#9C7041" points="24.8974483 12.7846207 20.8236552 10.6244483 26.8853793 11.8706552"></polygon>
            <polygon id="Fill-61" fill="#C7872A" points="26.8853448 11.8706897 20.8236207 10.6243103 25.7248276 10.3405172"></polygon>
            <path d="M19.0337759,69.2740517 C25.7872241,64.5714655 35.2703276,66.1064655 36.903431,66.4535345 C37.7215345,65.1323276 39.3587759,62.8290517 39.8917069,62.1092241 C40.3682586,62.1143966 40.6423966,62.1264655 40.6423966,62.1264655 C40.6423966,62.1264655 37.6480862,66.6076724 37.3761897,67.2743966 C29.9113621,66.1438793 24.2267069,66.4173276 18.6965345,69.9538793 C18.7872241,69.7316379 18.9105,69.5028448 19.0337759,69.2740517" id="Fill-63" fill="#613E16"></path>
            <path d="M41.2549483,61.7979483 C42.0333966,62.2850172 44.4337414,63.7327759 45.7030517,64.6293276 C47.0380517,63.6782931 55.2066724,58.5858793 63.2215,60.2498448 L63.2542586,60.2431207 C63.4570172,60.4058793 63.6599483,60.5682931 63.8628793,60.7308793 C57.364431,59.6751897 52.0508103,61.6055345 45.6213276,65.5629483 C45.1037414,65.0229483 40.6032241,62.1005345 40.6032241,62.1005345 C40.6032241,62.1005345 40.8573621,62.0148448 41.2549483,61.7979483" id="Fill-65" fill="#613E16"></path>
            <path d="M47.7085172,43.4342069 C47.7461034,42.950931 47.7183448,42.4811034 47.6388621,42.0897241 C47.5719655,41.5938621 47.4462759,41.1438621 47.360069,40.7198966 C47.2267931,39.8978276 47.2826552,39.0033448 48.3488621,37.7335172 C48.5566207,37.4193793 48.8497241,37.190069 49.1752414,36.9538621 C49.500931,36.7178276 49.8592069,36.4752414 50.1714483,36.1738621 C50.7440345,35.6498966 51.2769655,34.9298966 51.4493793,33.7740345 C51.4826552,33.9371379 51.4897241,34.1393793 51.5036897,34.3743793 C51.545069,35.0792069 51.4893793,35.9736897 51.4202414,36.8028276 C51.3462759,38.1086897 51.0571379,39.5261034 50.605069,40.9766207 C49.7355862,42.5462759 48.7638621,42.7778276 48.1578276,43.1388621 C47.9948966,43.1719655 47.8517931,43.3031724 47.7085172,43.4342069" id="Fill-67" fill="#C7872A"></path>
            <path d="M47.7085172,43.4342069 C47.8517931,43.3031724 47.9948966,43.1719655 48.1773103,43.0669655 C48.7831724,42.705931 49.755069,42.4743793 50.6245517,40.9048966 C49.900931,43.1919655 48.8119655,45.5193793 47.4014483,47.2667931 C46.3743793,48.5626552 45.5026552,49.4533448 44.8386897,50.030069 C45.0271379,49.788 45.235069,49.4738621 45.4428276,49.1598966 C46.3261034,47.8252414 47.2664483,45.9357586 47.6511034,43.8193793 C47.6897241,43.6757586 47.7024828,43.5712759 47.7085172,43.4342069" id="Fill-69" fill="#8B6427"></path>
            <path d="M44.3215172,45.6516724 C44.3463448,45.2730517 44.3320345,44.8683966 44.3242759,44.4963276 C44.308069,43.5825345 43.9913448,42.5261552 43.7142759,41.6654655 C43.4306552,40.7720172 43.1149655,40.0551207 43.0225517,39.7682241 C42.8970345,39.3182241 43.0716897,38.8411552 43.703069,38.2709828 C44.2691034,37.714431 44.4099655,36.9046034 44.4408276,36.388569 C44.5585862,36.4666724 44.6504828,36.5837414 44.788069,36.7596034 C44.9849655,37.0592586 45.1756552,37.4959828 45.3665172,37.9325345 C45.7153103,38.8127069 45.9535862,39.8171897 46.0399655,40.2411552 C46.0797931,40.4368448 46.1720345,40.7237414 46.2123793,41.0892586 C46.2854828,41.4478793 46.3391034,41.878569 46.3147931,42.4270172 C46.3297931,43.0013276 46.2668621,43.693569 46.0672069,44.5492586 C45.8046207,44.0932241 45.5354828,43.6046034 45.1749655,43.1683966 C45.0865172,44.069431 44.568069,45.1940862 44.3215172,45.6516724" id="Fill-71" fill="#C7872A"></path>
            <path d="M44.3215172,45.6516724 C44.568069,45.1940862 45.0932414,44.1021897 45.201,43.1290862 C45.5613448,43.5652931 45.8306552,44.0539138 46.0932414,44.5101207 C45.9323793,45.2221897 45.6935862,46.0518448 45.3442759,47.0059828 C44.5677241,49.0320172 43.5406552,50.3280517 42.7535862,51.133569 L42.6103103,51.2646034 L42.6363448,51.2252931 C42.7661724,51.0289138 42.8894483,50.8001207 43.0127241,50.5713276 C43.136,50.3423621 43.2525517,50.0808103 43.3951379,49.7801207 C43.9077241,48.7928793 44.2547931,47.1597759 44.3215172,45.6516724" id="Fill-73" fill="#8B6427"></path>
            <path d="M41.825069,46.737 C41.7581724,46.2411379 41.6586897,45.7518276 41.5392069,45.164931 C41.340069,44.1863103 40.9386897,43.2151034 40.5836897,42.4721724 C40.4062759,42.1006207 40.2354138,41.7618276 40.0778276,41.4882069 C39.953,41.2078621 39.8478276,41.0254483 39.8212759,40.894931 C39.7488621,40.7059655 39.8262759,40.4185517 39.9623103,40.0851034 C40.0981724,39.7516552 40.2474828,39.4837241 40.3121379,39.3006207 C40.4286897,39.0392414 40.453,38.4907931 40.360069,38.034069 C42.080069,38.9747586 43.6883448,41.7047586 43.4923103,45.5826897 C43.2362759,45.1592414 43.013,44.729069 42.6983448,44.3514828 C42.5642069,45.194069 42.0583448,46.214069 41.825069,46.737" id="Fill-75" fill="#C7872A"></path>
            <path d="M41.825069,46.737 C42.0976552,46.239931 42.5642069,45.194069 42.6590345,44.3256207 C42.9804138,44.7357931 43.2362759,45.1592414 43.453,45.5566552 C43.4536897,45.7264828 43.4216207,45.9026897 43.4286897,46.1051034 C43.195069,48.4623448 42.3974828,50.0511379 41.5916207,51.0982069 C41.325069,51.4582069 41.0454138,51.7528621 40.7916207,52.0082069 C41.3493793,50.9097586 41.8274828,49.419931 41.8966207,48.5906207 C41.940069,47.9702759 41.9317931,47.4287241 41.8581724,46.9001034 L41.825069,46.737 Z" id="Fill-77" fill="#8B6427"></path>
            <path d="M34.382569,48.3870517 C33.6637759,46.1896379 33.9251552,44.3023966 34.4153276,42.5382586 C34.6668793,41.6039483 34.9642931,40.7282586 35.2356724,39.8920517 C35.4423966,39.238431 35.6165345,38.5917069 35.6927414,37.9648103 C36.0079138,38.5120517 36.4141207,39.0068793 36.8598103,39.5273966 C37.4037759,40.1980862 38.0523966,40.8813621 38.6487759,41.6430862 C39.7567069,43.0818793 40.7348103,44.7170517 40.9577414,46.9815345 C40.6829138,46.7996379 40.3496379,46.6636034 39.9249828,46.5801552 C38.5794655,46.3105 37.4279138,45.4918793 37.1580862,44.833431 C37.1668793,45.5449828 36.4267069,46.748431 35.2936034,47.5223966 C34.8441207,47.817569 34.5644655,48.1122241 34.382569,48.3870517" id="Fill-79" fill="#C7872A"></path>
            <path d="M34.382569,48.3870517 C34.5644655,48.1122241 34.8701552,47.778431 35.2610172,47.5289483 C36.3941207,46.7549828 37.1342931,45.5515345 37.1255,44.8401552 C37.3953276,45.498431 38.5468793,46.3170517 39.8923966,46.5868793 C40.2842931,46.6768793 40.6570517,46.8389483 40.9251552,46.9880862 C40.9449828,47.0858448 40.9322241,47.1905 40.9589483,47.3208448 C41.0899828,49.4680862 40.3973966,51.2392931 39.7413621,52.1879138 C39.507569,52.5411897 39.2470517,52.7641207 39.0713621,52.9017069 C38.9215345,53.0001552 38.8303276,53.0527414 38.797569,53.0592931 C38.7323966,53.072569 38.6280862,53.0598103 38.4517069,53.0277414 C38.203431,52.9763621 37.8767069,52.8730862 37.523431,52.6391207 C36.5813621,52.0156724 35.2191207,50.6623966 34.5010172,48.6348103 C34.4158448,48.5501552 34.402569,48.4848103 34.382569,48.3870517" id="Fill-81" fill="#8B6427"></path>
            <path d="M31.5156724,47.9853276 C29.8265345,44.5248103 30.2337759,41.3510172 31.4494655,39.8130862 C31.5422241,40.2696379 31.7789483,40.7649828 31.988431,40.9601552 C32.1127414,41.0708448 32.3942931,41.2851552 32.6170517,41.5455 C32.8723966,41.7992931 33.023431,42.0403276 33.0632586,42.2358448 C33.0830862,42.3339483 33.0642931,42.5753276 33.0587759,42.8822241 C33.0532586,43.1891207 33.028431,43.5677414 33.0101552,43.9791207 C32.9805,44.8342931 32.9837759,45.852569 33.1829138,46.8310172 C33.3023966,47.4180862 33.4086034,47.9398103 33.5341207,48.3899828 C33.0889483,48.0389483 32.2508448,47.2582586 31.8241207,46.4960172 C31.5908448,47.0191207 31.5532586,47.5022241 31.5156724,47.9853276" id="Fill-83" fill="#C7872A"></path>
            <path d="M31.5156724,47.9853276 C31.5858448,47.4955 31.623431,47.0123966 31.7655,46.5418793 C32.1922241,47.3042931 33.0630862,48.0780862 33.4755,48.4356724 L33.5020517,48.5661897 C33.6408448,49.0813621 33.8448103,49.583431 34.1272241,50.1372241 C34.5215345,50.9061897 35.5370517,52.0582586 36.4798103,52.8515345 C36.1463621,52.7156724 35.7737759,52.5536034 35.3877414,52.3265345 C34.2368793,51.6773966 32.8491207,50.5330862 31.7456724,48.4480862 C31.6472241,48.2982586 31.5813621,48.1417069 31.5156724,47.9853276" id="Fill-85" fill="#8B6427"></path>
            <path d="M28.6438276,48.0602414 C28.1650345,47.3762759 27.8300345,46.7312759 27.5867586,46.2031724 C27.3826207,45.7012759 27.2638276,45.2838621 27.1581379,44.9317931 C27.0852069,44.573 27.0253793,44.2795517 26.9857241,44.0838621 C26.8993448,43.6598966 26.7329655,42.6747241 26.7036552,41.6957586 C26.6758966,41.2257586 26.7134828,40.7426552 26.7776207,40.390069 C26.8029655,40.180931 26.8676207,39.998 26.9522759,39.9128276 C27.1822759,40.3755862 27.6283103,41.0661034 28.366931,41.3573103 C29.1381379,41.6417931 29.5179655,42.0062759 29.5783103,42.4693793 C29.6053793,42.7695517 29.6276207,43.5462759 29.6827931,44.4862759 C29.7708966,45.4193793 29.9245172,46.5088621 30.2276207,47.3304138 C30.3657241,47.675931 30.504,48.0212759 30.6814138,48.3928276 C30.2757241,48.0678276 29.3657241,47.2678276 28.8864138,46.4143793 C28.7641724,46.9826552 28.7400345,47.5311034 28.6438276,48.0602414" id="Fill-87" fill="#C7872A"></path>
            <path d="M28.6438276,48.0602414 C28.7072759,47.5378276 28.7641724,46.9826552 28.9255517,46.4402414 C29.3983103,47.2612759 30.3083103,48.0611034 30.7207241,48.4188621 C31.3714138,49.7807586 32.3291724,51.1485172 33.1538276,51.8638621 C33.4027931,52.0848966 33.6055517,52.2474828 33.8150345,52.4426552 C34.0179655,52.605069 34.2208966,52.7676552 34.4171034,52.8976552 L34.4564138,52.9235172 L34.306069,52.8521379 C33.2407241,52.4574828 31.8150345,51.6267931 30.3084828,50.065069 C29.6207241,49.355931 29.0767586,48.6854138 28.6438276,48.0602414" id="Fill-89" fill="#8B6427"></path>
            <path d="M23.0966897,46.5055 C22.1137586,45.3467069 21.2872069,44.1223966 20.7154828,42.9818793 C20.3278966,42.2456724 19.9204828,41.4113621 19.6899655,40.7789483 C19.5584138,40.4661897 19.4985862,40.1727414 19.4653103,40.0094655 C19.4454828,39.9117069 19.4649655,39.8398103 19.4582414,39.8070517 C19.4582414,39.8070517 19.4515172,39.7746379 19.4842759,39.7679138 C19.9192759,41.0718793 20.7503103,41.6501552 21.626,41.9473966 C22.0311724,42.1029138 22.4558276,42.1861897 22.8477241,42.2765345 C23.2396207,42.3665345 23.6056552,42.4958448 23.9128966,42.6710172 C25.3973793,43.4560172 25.7915172,44.2248103 25.9901379,45.0336034 C26.1156552,45.4836034 26.1692759,45.9142931 26.2687586,46.403431 C26.3484138,46.7949828 26.5065172,47.2382586 26.7299655,47.6682586 C26.5468621,47.6036034 26.363931,47.5389483 26.1549655,47.5136034 C25.5020345,47.4765345 24.5103103,47.6103276 23.0966897,46.5055" id="Fill-91" fill="#C7872A"></path>
            <path d="M23.0966897,46.5055 C24.5103103,47.6103276 25.4954828,47.4439483 26.1942759,47.5396379 C26.3704828,47.5717069 26.5861724,47.6298103 26.7691034,47.6944655 C26.8284138,47.8180862 26.8808276,47.9094655 26.9725517,48.0265345 C28.121,49.8308448 29.7573793,51.1961897 31.0918621,52.0794655 C31.4058276,52.2873966 31.7199655,52.4951552 31.988069,52.6444655 C31.1516897,52.3730862 30.0011724,51.8939483 28.5494483,51.1022241 C26.568069,50.0448103 24.6303103,48.3672241 23.0966897,46.5055" id="Fill-93" fill="#8B6427"></path>
            <path d="M29.1778276,29.983569 L29.5548966,29.4992586 C29.9578276,28.9758103 30.4907586,28.2559828 31.0235172,27.5361552 L33.0135172,25.2970172 L38.2516207,28.1715 C36.9995517,28.5280517 33.5886897,29.4597759 29.1778276,29.983569" id="Fill-95" fill="#492E18"></path>
            <path d="M41.7583793,22.7027931 L46.054931,25.1233103 C45.2209655,25.5307241 43.1097586,26.6736552 39.5297586,27.7755517 L41.7583793,22.7027931 Z" id="Fill-97" fill="#492E18"></path>
            <path d="M46.425931,24.7761379 C45.3926552,24.2051034 43.5086897,22.9580345 42.4819655,22.4197586 C44.8166207,21.707 46.7645517,20.5973448 47.3571379,20.1711379 L46.425931,24.7761379 Z" id="Fill-99" fill="#F9A440"></path>
            <path d="M40.8324138,22.993069 L38.7656897,27.6932414 C37.7258621,27.0896207 35.1817241,25.6032414 33.912931,24.8763448 C36.8091379,24.2532414 38.1396552,23.9485862 40.8324138,22.993069" id="Fill-101" fill="#F9A440"></path>
            <path d="M24.8833103,26.2379483 L28.6222759,29.7569138 C29.3436552,28.7950172 31.1046897,26.4327759 31.9886552,25.2679483 C29.0465862,25.832431 27.7353793,26.0653621 24.8833103,26.2379483" id="Fill-103" fill="#F9A440"></path>
            <path d="M23.9175172,26.332569 L20.9082069,30.2394655 C21.8352759,30.2886034 24.1273448,30.5355 27.8859655,30.1444655 L23.9175172,26.332569 Z" id="Fill-105" fill="#492E18"></path>
            <path d="M20.3985172,30.0714655 C21.1266207,29.1421552 22.3736897,27.2580172 23.1081724,26.3612931 C20.6807586,26.6175 18.4347241,26.4290517 17.7226552,26.2681897 L20.3985172,30.0714655 Z" id="Fill-107" fill="#F9A440"></path>
            <path d="M49.4563966,23.3104483 C48.8505345,23.6714828 47.5410517,24.4133793 47.0196724,24.6892414 C47.2181207,23.494069 47.7458793,21.2468276 48.1726034,20.0052759 C48.6917414,21.0544138 49.0870862,22.1628621 49.4563966,23.3104483" id="Fill-109" fill="#492E18"></path>
            <path d="M17.2845517,29.9577241 C17.1695517,28.7244483 17.1588621,27.5037586 17.1876552,26.3091034 C18.040069,27.4942759 19.2933448,29.481 19.8114483,30.191 C19.1652414,30.1865172 17.8461034,30.0473793 17.2845517,29.9577241" id="Fill-111" fill="#492E18"></path>
            <path d="M33.8487414,33.0752241 C34.154431,32.7412586 34.3954655,32.5902241 34.6237414,32.5438448 C34.8520172,32.4974655 35.1396034,32.5748793 35.5447759,32.7302241 C35.9566724,32.9179828 36.4470172,33.1579828 37.074431,33.4038448 C38.1530517,33.8638448 39.8252931,34.2367759 41.523569,34.570569 C41.9482241,34.6541897 42.3727069,34.7376379 42.8365,34.8469483 C41.6358103,34.9553966 40.0890862,35.0322931 38.6202931,34.9916034 C39.0718448,35.3752241 39.5761552,35.8500517 40.0216724,36.3707414 C39.2632241,35.981431 37.9690862,35.4636724 36.7140862,34.9717759 C37.0032241,35.5581552 37.4108103,36.3924655 37.7923621,37.2659138 C36.8097759,36.2769483 35.8413276,35.5229828 35.1280517,35.0226379 C34.6671897,35.7617759 34.063569,36.8016034 33.5196034,38.1352241 C33.5028793,37.0516034 33.5715,36.0528103 33.634431,35.360569 C32.6128793,36.3495345 31.4221897,37.5090172 30.8240862,38.2421207 C31.0308103,37.5886724 31.3159828,36.9869483 31.5751207,36.4248793 C30.3696034,37.0097069 29.0461552,37.5167759 27.9377069,37.9121207 C28.3220172,37.6302241 28.7127069,37.3809138 29.0970172,37.0988448 C30.5297759,36.1279828 31.9168448,35.0986724 32.7365,34.286431 C33.1854655,33.8216034 33.5430517,33.4091897 33.8487414,33.0752241" id="Fill-113" fill="#C7872A"></path>
            <path d="M45.5657931,15.3727586 C45.8085517,15.7310345 46.1302759,16.3108621 46.1501034,16.4086207 C46.2092414,16.5325862 46.1966552,16.637069 46.1771724,16.7089655 C46.1838966,16.7413793 46.1252759,16.7874138 46.0666552,16.8332759 C46.034069,16.8398276 45.9361379,16.8598276 45.7857931,16.7884483 C45.6354483,16.7172414 45.4718276,16.5806897 45.3082069,16.4441379 C45.2230345,16.3594828 45.112,16.3141379 45.0268276,16.2296552 C44.9416552,16.145 44.8306207,16.0996552 44.752,16.0477586 C44.5625172,15.9505172 44.3009655,15.8337931 44.0273448,15.9913793 C43.7537241,16.1489655 43.6044138,16.417069 43.5530345,16.6653448 C43.5076897,16.7765517 43.5016552,16.9136207 43.4888966,17.017931 C43.4761379,17.1225862 43.4701034,17.2596552 43.4573448,17.3641379 C43.419931,17.8472414 43.3618276,18.062931 43.0423448,18.1618966 C42.527,18.3006897 42.0566552,18.1586207 41.5728621,17.9513793 C41.3114828,17.8346552 41.0566552,17.7506897 40.8409655,17.6927586 C40.5926897,17.6412069 40.3118276,17.5963793 40.0316552,17.7215517 C39.7513103,17.8463793 39.5628621,18.0884483 39.4135517,18.3567241 C39.3356207,18.4744828 39.297,18.6181034 39.2257931,18.7684483 C39.187,18.9122414 39.109069,19.03 39.0378621,19.1803448 C38.7785517,19.7425862 38.5513103,20.1284483 38.159931,20.2081034 C37.4751034,20.3475862 37.0171724,20.1008621 36.5528621,19.8217241 C36.4351034,19.7439655 36.3173448,19.6658621 36.2063103,19.6206897 C36.0885517,19.5427586 35.9447586,19.5039655 35.827,19.4260345 C35.5330345,19.3160345 35.2521724,19.2712069 34.899931,19.3768966 C34.5152759,19.4891379 34.2873448,19.7053448 34.0988966,19.9474138 C34.0209655,20.0651724 33.9430345,20.182931 33.8718276,20.3332759 C33.7938966,20.4510345 33.7485517,20.5622414 33.6771724,20.7125862 C33.4306207,21.1703448 33.2035517,21.5562069 32.5185517,21.6955172 C31.8337241,21.8348276 31.4737241,21.5684483 31.0680345,21.2434483 C30.9501034,21.1655172 30.8583793,21.0482759 30.7406207,20.9703448 C30.6228621,20.8924138 30.4985517,20.7818966 30.3807931,20.7039655 C30.1126897,20.5546552 29.7859655,20.4513793 29.4204483,20.4917241 C29.0551034,20.532069 28.7814828,20.6896552 28.5863103,20.8991379 C28.469069,20.9908621 28.3911379,21.1087931 28.3132069,21.2263793 C28.2352759,21.3441379 28.1507931,21.4293103 28.0728621,21.547069 C27.7544138,21.9855172 27.4294138,22.3913793 26.7444138,22.5306897 C26.3204483,22.6168966 25.9278621,22.357069 25.4695862,21.9408621 C25.2533793,21.7131034 25.0113103,21.5246552 24.8018276,21.3294828 C24.5988966,21.1668966 24.324069,20.9851724 24.049931,20.972931 C23.7430345,20.9674138 23.502,21.1184483 23.3002759,21.2953448 C23.0918276,21.4396552 22.8968276,21.6491379 22.7016552,21.8586207 C22.3114828,22.2777586 21.9013103,22.5989655 21.3726897,22.6724138 C21.0725172,22.6996552 20.9414828,22.5563793 20.7833793,22.1131034 C20.7042414,21.8913793 20.6252759,21.6696552 20.5528621,21.4806897 C20.4476897,21.2982759 20.2901034,21.0246552 19.9507931,21.0256897 C19.6764828,21.0136207 19.4682069,21.157931 19.2923448,21.2955172 C19.0838966,21.4398276 18.9214828,21.6427586 18.7523448,21.8131034 C18.5830345,21.9832759 18.4206207,22.1862069 18.2775172,22.3172414 C18.1409655,22.4808621 18.0171724,22.54 17.9585517,22.5858621 C17.9257931,22.5925862 17.7302759,22.6322414 17.7621724,22.4560345 C17.749069,22.3908621 17.7616552,22.2863793 17.7937241,22.11 C17.8511379,21.7246552 18.0247586,20.9081034 18.0247586,20.9081034 C18.1535517,20.3724138 18.2823448,19.8367241 18.4437241,19.2944828 C19.674931,20.5044828 25.6723448,20.0994828 31.9345862,18.8253448 C38.3273448,17.5246552 44.0975172,15.5017241 44.549069,13.8813793 C44.8116552,14.3374138 45.1852759,14.8387931 45.5657931,15.3727586" id="Fill-115" fill="#492E18"></path>
            <path d="M49.6344483,23.8516034 C49.9247931,24.7776379 50.1563448,25.7493621 50.3622069,26.760569 C50.8399655,29.1088448 51.0368621,31.4124655 51.0182414,33.6579828 C50.8585862,34.7093621 50.4035862,35.311431 49.8827241,35.7571207 C49.5704828,36.0583276 49.2382414,36.2617759 48.9192759,36.530569 C48.828069,36.5831552 48.7435862,36.6681552 48.6523793,36.7207414 C48.1542759,36.1088448 47.3427241,35.4586724 46.1861724,35.1166034 C44.9970345,34.7810862 43.266,34.4540172 41.5677241,34.1202241 C39.8628966,33.7536724 38.2299655,33.4066034 37.2232414,32.9660862 C36.6282414,32.7135 36.1378966,32.4736724 35.6934138,32.2922931 C35.2815172,32.1043621 34.883069,31.9816034 34.5242759,32.0547069 C34.1654828,32.1276379 33.8465172,32.396431 33.5408276,32.7302241 C33.2351379,33.0641897 32.8775517,33.4766034 32.396,33.9481552 C31.608931,34.7536724 30.2737586,35.7045345 28.8477241,36.7079828 C27.4215172,37.7116034 25.9492759,38.6562586 24.9858276,39.4298793 C24.0156552,40.170569 23.5618621,41.1121207 23.3491034,41.9026379 C23.2378966,41.8574655 23.0942759,41.8186724 22.9897931,41.8059138 C22.5978966,41.7157414 22.2058276,41.6257414 21.8006552,41.4703966 C21.1404828,41.2310862 20.4865172,40.8547069 19.9154828,39.8838448 C18.968931,37.9028103 18.2501379,35.7053966 17.778931,33.3895345 C17.5797931,32.4110862 17.4201379,31.4586724 17.3254828,30.4929828 C21.0613448,31.1593621 26.3823793,31.4353966 34.1122069,29.8628103 C41.4834138,28.3629828 46.4165172,25.8988448 49.6344483,23.8516034" id="Fill-117" fill="#9C7041"></path>
            <path d="M46.2574828,17.27 C46.4464483,17.1975862 46.5112759,17.0146552 46.5498966,16.8708621 C47.0026552,17.5937931 47.4361034,18.3887931 47.8043793,19.197069 C45.2190345,21.0136207 39.4233448,23.2458621 33.0305862,24.5463793 C26.8988621,25.7939655 20.118,26.1884483 17.2378276,25.7215517 C17.2804138,24.7618966 17.3947241,23.8215517 17.5483448,22.907069 C17.6861034,23.082931 17.8623103,23.115 18.0840345,23.0358621 C18.2404138,22.9701724 18.4162759,22.8324138 18.5528276,22.6687931 C18.6893793,22.5051724 18.8911034,22.3282759 19.0602414,22.157931 C19.2293793,21.9877586 19.3985172,21.8174138 19.5417931,21.6863793 C19.6848966,21.5553448 19.8154138,21.5287931 19.9131724,21.5087931 C19.945931,21.5022414 20.0176552,21.5215517 20.0835172,21.6781034 C20.1819655,21.827931 20.2283448,22.0562069 20.3007586,22.2451724 C20.4523103,22.6560345 20.7347241,23.2098276 21.433,23.1356897 C22.1245517,23.0289655 22.6452414,22.5834483 23.0355862,22.1643103 C23.2307586,21.9548276 23.3998966,21.7846552 23.6081724,21.6403448 C23.7840345,21.5025862 23.9078276,21.4434483 24.0448966,21.4494828 C24.1493793,21.4622414 24.2931724,21.5008621 24.4961034,21.6634483 C24.6988621,21.8258621 24.915069,22.0537931 25.1247241,22.2487931 C25.583,22.6651724 26.1524828,23.1265517 26.8307586,22.9546552 C27.6786897,22.782069 28.1076552,22.2193103 28.4586897,21.7743103 C28.5366207,21.6565517 28.6211034,21.5713793 28.6992069,21.4536207 C28.7836897,21.3684483 28.8616207,21.2506897 28.9202414,21.2048276 C29.0961034,21.0672414 29.245931,20.9687931 29.4742069,20.9224138 C29.7416207,20.9018966 29.9573103,20.9598276 30.1469655,21.0572414 C30.2581724,21.1025862 30.3431724,21.187069 30.4283448,21.2715517 C30.5461034,21.3496552 30.6312759,21.4341379 30.7555862,21.5446552 L30.925931,21.7137931 C31.4295517,22.0189655 32.005069,22.3434483 32.8855862,22.1643103 C33.5054138,22.0382759 33.8038621,21.5018966 34.0436897,21.0117241 L34.115069,20.8612069 C34.1604138,20.7501724 34.2383448,20.6324138 34.3097241,20.482069 C34.3548966,20.3708621 34.4328276,20.2531034 34.4848966,20.1746552 C34.6214483,20.0110345 34.7905862,19.8406897 35.0514483,19.7875862 C35.2731724,19.7086207 35.4821379,19.7339655 35.6717931,19.8312069 C35.7828276,19.8765517 35.8940345,19.9218966 35.9724828,19.9739655 C36.0902414,20.0517241 36.2012759,20.097069 36.3190345,20.1751724 C36.8226552,20.4801724 37.3981724,20.8046552 38.2788621,20.6255172 C38.9638621,20.4862069 39.2748966,19.8455172 39.5407586,19.3158621 C39.6121379,19.1655172 39.6574828,19.0543103 39.7288621,18.9039655 C39.7740345,18.792931 39.8454138,18.6424138 39.8907586,18.5313793 C40.0140345,18.3024138 40.1245517,18.1781034 40.2483448,18.1189655 C40.3723103,18.0598276 40.5419655,18.0591379 40.7576552,18.1172414 C40.9731724,18.1751724 41.1954138,18.2658621 41.4502414,18.35 C41.9340345,18.5572414 42.5481724,18.737931 43.2264483,18.5660345 C43.898,18.3613793 43.9876552,17.7996552 44.0252414,17.3165517 C44.0378276,17.212069 44.0440345,17.075 44.0566207,16.9705172 C44.0693793,16.8660345 44.0821379,16.7615517 44.1014483,16.6896552 C44.1335172,16.5132759 44.2114483,16.3955172 44.3352414,16.3363793 C44.4004138,16.3231034 44.4657586,16.3098276 44.6161034,16.3812069 C44.6947241,16.4331034 44.7731724,16.485 44.8516207,16.537069 C44.930069,16.5889655 45.0152414,16.6736207 45.1262759,16.7189655 C45.290069,16.8555172 45.4928276,17.017931 45.6826552,17.1153448 C45.7874828,17.2975862 46.0423103,17.3815517 46.2574828,17.27" id="Fill-119" fill="#9C7041"></path>
            <polygon id="Fill-121" fill="#3B7337" points="81.1982931 27.7708966 78.1822586 27.7708966 78.1822586 31.3346897 81.5898448 31.3346897 81.5898448 33.5672759 75.6170862 33.5672759 75.6170862 20.3684828 81.3546724 20.3684828 81.3546724 22.6008966 78.1822586 22.6008966 78.1822586 25.6362414 81.1982931 25.6362414"></polygon>
            <path d="M91.4008448,28.9458103 C91.3420517,27.6925345 91.2442931,25.9889138 91.283431,24.5787414 L91.2246379,24.5787414 C90.9894655,25.9889138 90.6370517,27.6140862 90.3827414,28.6325345 L89.2467069,33.3516724 L87.4256724,33.3516724 L86.3289483,28.7104655 C86.0742931,27.6532241 85.7220517,26.0082241 85.5261897,24.5787414 L85.4673966,24.5787414 C85.4280862,26.0082241 85.3498103,27.6727069 85.2713621,28.9849483 L85.0561897,33.5671897 L82.8432586,33.5671897 L83.8030862,20.3683966 L86.5051552,20.3683966 L87.5627414,25.1466724 C87.9346379,26.8111552 88.267569,28.2799483 88.5027414,29.7682241 L88.5420517,29.7682241 C88.7377414,28.2992586 89.0313621,26.8111552 89.3837759,25.1466724 L90.4218793,20.3683966 L93.1241207,20.3683966 L93.9270517,33.5671897 L91.6360172,33.5671897 L91.4008448,28.9458103 Z" id="Fill-123" fill="#3B7337"></path>
            <path d="M98.3725,31.6480172 C98.5293966,31.6873276 98.7057759,31.6873276 98.9406034,31.6873276 C99.9783621,31.6873276 100.840259,31.0606034 100.840259,29.7093966 C100.840259,28.3975 99.9392241,27.7119828 98.9211207,27.6925 L98.3725,27.6925 L98.3725,31.6480172 Z M98.3725,25.7928448 L98.9211207,25.7928448 C99.8414655,25.7928448 100.546293,25.0097414 100.546293,23.9326724 C100.546293,22.9730172 100.095948,22.2290517 99.0383621,22.2290517 C98.7642241,22.2290517 98.5293966,22.2483621 98.3725,22.3069828 L98.3725,25.7928448 Z M95.8073276,20.5642241 C96.5907759,20.3881897 97.6088793,20.3099138 98.7250862,20.3099138 C99.9588793,20.3099138 101.153534,20.4662931 102.073879,21.2497414 C102.778879,21.8373276 103.0725,22.7185345 103.0725,23.6387069 C103.0725,24.8135345 102.465431,25.949569 101.153534,26.5176724 L101.153534,26.5957759 C102.680948,27.0266379 103.503362,28.2993966 103.503362,29.7487069 C103.503362,30.8450862 103.150776,31.6873276 102.524052,32.3333621 C101.740948,33.1952586 100.409224,33.6650862 98.1964655,33.6650862 C97.2175,33.6650862 96.3947414,33.6062931 95.8073276,33.5280172 L95.8073276,20.5642241 Z" id="Fill-125" fill="#3B7337"></path>
            <polygon id="Fill-127" fill="#3B7337" points="105.266017 20.3684655 107.83119 20.3684655 107.83119 31.3932931 111.218948 31.3932931 111.218948 33.5672586 105.266017 33.5672586"></polygon>
            <polygon id="Fill-129" fill="#3B7337" points="118.28831 27.7708966 115.272793 27.7708966 115.272793 31.3346897 118.680034 31.3346897 118.680034 33.5672759 112.707621 33.5672759 112.707621 20.3684828 118.445207 20.3684828 118.445207 22.6008966 115.272793 22.6008966 115.272793 25.6362414 118.28831 25.6362414"></polygon>
            <path d="M128.491207,28.9458103 C128.432586,27.6925345 128.334483,25.9889138 128.373621,24.5787414 L128.315,24.5787414 C128.08,25.9889138 127.727414,27.6140862 127.472931,28.6325345 L126.337241,33.3516724 L124.515862,33.3516724 L123.419483,28.7104655 C123.164655,27.6532241 122.812241,26.0082241 122.616552,24.5787414 L122.557586,24.5787414 C122.518276,26.0082241 122.440172,27.6727069 122.361897,28.9849483 L122.146379,33.5671897 L119.933621,33.5671897 L120.893103,20.3683966 L123.59569,20.3683966 L124.652931,25.1466724 C125.025,26.8111552 125.357931,28.2799483 125.592931,29.7682241 L125.632069,29.7682241 C125.827931,28.2992586 126.121724,26.8111552 126.47431,25.1466724 L127.512069,20.3683966 L130.21431,20.3683966 L131.017241,33.5671897 L128.726034,33.5671897 L128.491207,28.9458103 Z" id="Fill-131" fill="#3B7337"></path>
            <path d="M75.0688448,47.1975 C75.1866034,47.2364655 75.3821207,47.2364655 75.5191897,47.2364655 C76.7531552,47.2364655 77.8302241,46.0223276 77.8302241,42.3800862 C77.8302241,39.6778448 77.1250517,38.0328448 75.5778103,38.0328448 C75.4016034,38.0328448 75.2253966,38.0328448 75.0688448,38.0914655 L75.0688448,47.1975 Z M72.5036724,36.2309483 C73.1497069,36.0743966 74.0897069,35.9764655 75.1081552,35.9764655 C76.7724655,35.9764655 77.9279828,36.3681897 78.7700517,37.1512931 C79.9057414,38.1699138 80.4931552,39.9126724 80.4931552,42.4778448 C80.4931552,45.1412931 79.8078103,47.0406034 78.6524655,48.0590517 C77.7710862,48.920431 76.4591897,49.3318103 74.6185,49.3318103 C73.815569,49.3318103 73.0126379,49.2533621 72.5036724,49.1947414 L72.5036724,36.2309483 Z" id="Fill-133" fill="#8B6427"></path>
            <polygon id="Fill-135" fill="#8B6427" points="87.6998448 43.437569 84.6843276 43.437569 84.6843276 47.0013621 88.091569 47.0013621 88.091569 49.2337759 82.1191552 49.2337759 82.1191552 36.0351552 87.8567414 36.0351552 87.8567414 38.2677414 84.6843276 38.2677414 84.6843276 41.3029138 87.6998448 41.3029138"></polygon>
            <path d="M89.541,46.6097069 C90.0696207,46.9035 90.9704828,47.1190172 91.7146207,47.1190172 C92.9287586,47.1190172 93.5163448,46.4922931 93.5163448,45.6303966 C93.5163448,44.6710862 92.9287586,44.2012586 91.8125517,43.476431 C90.0111724,42.3800517 89.3254828,40.9895345 89.3254828,39.7950517 C89.3254828,37.6802241 90.7356552,35.9178103 93.4963448,35.9178103 C94.3582414,35.9178103 95.1806552,36.1528103 95.5723793,36.3876379 L95.1613448,38.6003966 C94.788931,38.365569 94.2213448,38.1500517 93.4770345,38.1500517 C92.3806552,38.1500517 91.8516897,38.8159138 91.8516897,39.5209138 C91.8516897,40.3043621 92.2432414,40.7153966 93.6727241,41.5771207 C95.4154828,42.6345345 96.0620345,43.9660862 96.0620345,45.3562586 C96.0620345,47.7650517 94.2799655,49.351431 91.6949655,49.351431 C90.6377241,49.351431 89.5996207,49.0774655 89.168931,48.8226379 L89.541,46.6097069 Z" id="Fill-137" fill="#8B6427"></path>
            <mask id="mask-6" fill="white">
                <use xlink:href="#path-5"></use>
            </mask>
            <g id="Clip-140"></g>
            <polygon id="Fill-139" fill="#8B6427" mask="url(#mask-6)" points="97.5505172 49.2337931 100.115862 49.2337931 100.115862 36.0351724 97.5505172 36.0351724"></polygon>
            <path d="M109.730759,48.8813966 C109.162828,49.1162241 107.94869,49.351569 106.989379,49.351569 C105.481448,49.351569 104.345414,48.9205345 103.464379,48.0391552 C102.328345,46.9427759 101.721621,44.9843276 101.760759,42.7127759 C101.819379,37.9151897 104.560931,35.9179483 107.361448,35.9179483 C108.359897,35.9179483 109.104207,36.1134655 109.515414,36.3093276 L109.065069,38.5222586 C108.693,38.3262241 108.203517,38.2284655 107.557138,38.2284655 C105.814207,38.2284655 104.423862,39.4231207 104.423862,42.8696724 C104.423862,46.0419138 105.657655,47.1776034 106.851966,47.1776034 C107.087138,47.1776034 107.263345,47.1582931 107.361448,47.1189828 L107.361448,43.9269138 L106.186448,43.9269138 L106.186448,41.8317414 L109.730759,41.8317414 L109.730759,48.8813966 Z" id="Fill-141" fill="#8B6427" mask="url(#mask-6)"></path>
            <path d="M111.650052,49.2338103 L111.650052,36.0351897 L113.999707,36.0351897 L116.036431,41.2051897 C116.427983,42.2232931 117.074362,43.9269138 117.446259,45.0629483 L117.485569,45.0629483 C117.407121,43.672431 117.230741,41.3813966 117.230741,38.9529483 L117.230741,36.0351897 L119.483155,36.0351897 L119.483155,49.2338103 L117.132983,49.2338103 L115.116086,44.2207069 C114.685052,43.1045 114.078155,41.4400172 113.784362,40.2453621 L113.745052,40.2453621 C113.804017,41.5770862 113.901948,43.6134655 113.901948,46.2570862 L113.901948,49.2338103 L111.650052,49.2338103 Z" id="Fill-142" fill="#8B6427" mask="url(#mask-6)"></path>
            <polygon id="Fill-143" fill="#8B6427" mask="url(#mask-6)" points="127.335828 43.437569 124.319966 43.437569 124.319966 47.0013621 127.727379 47.0013621 127.727379 49.2337759 121.754621 49.2337759 121.754621 36.0351552 127.492207 36.0351552 127.492207 38.2677414 124.319966 38.2677414 124.319966 41.3029138 127.335828 41.3029138"></polygon>
            <path d="M132.035948,41.9882241 L132.486293,41.9882241 C133.6025,41.9882241 134.248534,41.0875345 134.248534,39.9320172 C134.248534,38.8159828 133.798362,38.0128793 132.643017,37.9737414 C132.4275,37.9737414 132.173017,37.993569 132.035948,38.0521897 L132.035948,41.9882241 Z M129.470603,36.2308103 C130.273534,36.074431 131.29181,35.9765 132.270776,35.9765 C133.680948,35.9765 134.934224,36.1723621 135.795776,36.9558103 C136.598707,37.6802931 136.833534,38.5615 136.833534,39.6971897 C136.833534,41.1070172 136.148362,42.3799483 134.797155,43.0066724 L134.797155,43.0459828 C135.697845,43.3983966 136.148362,44.2402931 136.403017,45.6502931 C136.657328,47.1190862 137.009914,48.744431 137.244741,49.2337414 L134.56181,49.2337414 C134.405431,48.8618448 134.111466,47.5302931 133.915776,46.0811552 C133.680948,44.4361552 133.269741,43.9661552 132.407845,43.9661552 L132.035948,43.9661552 L132.035948,49.2337414 L129.470603,49.2337414 L129.470603,36.2308103 Z" id="Fill-144" fill="#8B6427" mask="url(#mask-6)"></path>
            <path d="M138.380741,46.6097069 C138.909534,46.9035 139.810224,47.1190172 140.554534,47.1190172 C141.7685,47.1190172 142.356086,46.4922931 142.356086,45.6303966 C142.356086,44.6710862 141.7685,44.2012586 140.652466,43.476431 C138.850914,42.3800517 138.165224,40.9895345 138.165224,39.7950517 C138.165224,37.6802241 139.575397,35.9178103 142.336259,35.9178103 C143.198155,35.9178103 144.020569,36.1528103 144.412121,36.3876379 L144.001086,38.6003966 C143.628672,38.365569 143.061086,38.1500517 142.316776,38.1500517 C141.220397,38.1500517 140.691603,38.8159138 140.691603,39.5209138 C140.691603,40.3043621 141.082983,40.7153966 142.512638,41.5771207 C144.255397,42.6345345 144.901776,43.9660862 144.901776,45.3562586 C144.901776,47.7650517 143.119707,49.351431 140.534707,49.351431 C139.477466,49.351431 138.439362,49.0774655 138.008845,48.8226379 L138.380741,46.6097069 Z" id="Fill-145" fill="#8B6427" mask="url(#mask-6)"></path>
            <path d="M74.2493793,18.0598276 L74.2493793,17.4567241 L74.695069,16.887931 C75.2705862,16.1548276 75.7433448,15.5446552 75.7433448,14.9075862 C75.7433448,14.5512069 75.5447241,14.2977586 75.1747241,14.2977586 C74.8935172,14.2977586 74.6676552,14.4208621 74.5031724,14.5237931 L74.3454138,13.8248276 C74.550931,13.6948276 74.9347241,13.5506897 75.3390345,13.5506897 C76.3123103,13.5506897 76.6274828,14.2015517 76.6274828,14.8389655 C76.6274828,15.675 76.1066207,16.3465517 75.5924828,16.9427586 L75.3254138,17.2582759 L75.3254138,17.2715517 L76.6890345,17.2715517 L76.6890345,18.0598276 L74.2493793,18.0598276 Z" id="Fill-146" fill="#EB4724" mask="url(#mask-6)"></path>
            <path d="M78.0668966,15.8328448 C78.0532759,16.874569 78.1836207,17.3471552 78.4851724,17.3471552 C78.7660345,17.3471552 78.8617241,16.8537069 78.8617241,15.8328448 C78.8617241,14.8800862 78.772931,14.3181897 78.4851724,14.3181897 C78.2039655,14.3181897 78.0601724,14.7978448 78.0668966,15.8328448 M79.7663793,15.8121552 C79.7663793,17.4087069 79.1839655,18.1147414 78.4644828,18.1147414 C77.4912069,18.1147414 77.1624138,16.9975 77.1624138,15.8531897 C77.1624138,14.5719828 77.5736207,13.5506034 78.4987931,13.5506034 C79.5267241,13.5506034 79.7663793,14.7497414 79.7663793,15.8121552" id="Fill-147" fill="#EB4724" mask="url(#mask-6)"></path>
            <path d="M81.3090862,17.1416034 C81.4942586,17.2441897 81.809431,17.3197069 82.0699483,17.3197069 C82.4949483,17.3197069 82.7004655,17.1003966 82.7004655,16.7990172 C82.7004655,16.4633276 82.4949483,16.2988448 82.1040862,16.0450517 C81.473569,15.661431 81.2339138,15.1748793 81.2339138,14.7567759 C81.2339138,14.0166034 81.7273621,13.3998793 82.6933966,13.3998793 C82.9949483,13.3998793 83.2827069,13.4821207 83.4197759,13.5643621 L83.2759828,14.3386724 C83.1456379,14.256431 82.9471897,14.1810862 82.6866724,14.1810862 C82.3030517,14.1810862 82.1177069,14.4141897 82.1177069,14.6607414 C82.1177069,14.9348793 82.2547759,15.0786724 82.7552931,15.3802241 C83.3651207,15.750569 83.5913276,16.2166034 83.5913276,16.7029828 C83.5913276,17.5457414 82.9675345,18.1009138 82.0628793,18.1009138 C81.6930517,18.1009138 81.3297759,18.0050517 81.1790862,17.9160862 L81.3090862,17.1416034 Z" id="Fill-148" fill="#EB4724" mask="url(#mask-6)"></path>
            <path d="M84.8184828,15.7506034 C84.8184828,16.7990517 85.016931,17.3335345 85.3803793,17.3335345 C85.7571034,17.3335345 85.9012414,16.6481897 85.9012414,15.7092241 C85.9012414,14.9007759 85.7777931,14.1673276 85.3734828,14.1673276 C85.016931,14.1673276 84.8184828,14.7568103 84.8184828,15.7506034 M86.8400345,15.6683621 C86.8400345,17.4087069 86.2231379,18.1147414 85.346069,18.1147414 C84.2976207,18.1147414 83.8865862,17.004569 83.8865862,15.7364655 C83.8865862,14.4756034 84.3865862,13.3862931 85.4077931,13.3862931 C86.5246897,13.3862931 86.8400345,14.6126724 86.8400345,15.6683621" id="Fill-149" fill="#EB4724" mask="url(#mask-6)"></path>
            <path d="M88.2797241,13.4410172 L88.2797241,16.442569 C88.2797241,17.1211897 88.4852414,17.3265345 88.7183448,17.3265345 C88.9786897,17.3265345 89.1635172,17.1415345 89.1635172,16.442569 L89.1635172,13.4410172 L90.0614483,13.4410172 L90.0614483,16.2848103 C90.0614483,17.4705 89.6157586,18.1146379 88.7248966,18.1146379 C87.7586897,18.1146379 87.3817931,17.4501552 87.3817931,16.2918793 L87.3817931,13.4410172 L88.2797241,13.4410172 Z" id="Fill-150" fill="#EB4724" mask="url(#mask-6)"></path>
            <polygon id="Fill-151" fill="#EB4724" mask="url(#mask-6)" points="91.3367069 14.2703448 90.5211897 14.2703448 90.5211897 13.4410345 93.0567069 13.4410345 93.0567069 14.2703448 92.2342931 14.2703448 92.2342931 18.0598276 91.3367069 18.0598276"></polygon>
            <polygon id="Fill-152" fill="#EB4724" mask="url(#mask-6)" points="94.4278621 13.4410172 94.4278621 15.2911897 95.3664828 15.2911897 95.3664828 13.4410172 96.2644138 13.4410172 96.2644138 18.0598103 95.3664828 18.0598103 95.3664828 16.1273966 94.4278621 16.1273966 94.4278621 18.0598103 93.529931 18.0598103 93.529931 13.4410172"></polygon>
            <path d="M99.6299138,16.3055517 L99.4792241,15.3393448 C99.4311207,15.0583103 99.369569,14.5993448 99.3285345,14.2907241 L99.3078448,14.2907241 C99.2599138,14.5993448 99.1914655,15.0786552 99.1433621,15.346069 L98.9721552,16.3055517 L99.6299138,16.3055517 Z M98.8828448,17.0045172 L98.6773276,18.0598621 L97.8071552,18.0598621 L98.8075,13.441069 L99.8833621,13.441069 L100.781293,18.0598621 L99.9107759,18.0598621 L99.7123276,17.0045172 L98.8828448,17.0045172 Z" id="Fill-153" fill="#EB4724" mask="url(#mask-6)"></path>
            <polygon id="Fill-154" fill="#EB4724" mask="url(#mask-6)" points="101.288707 13.4410172 103.296638 13.4410172 103.296638 14.2222241 102.186638 14.2222241 102.186638 15.407569 103.22819 15.407569 103.22819 16.1548103 102.186638 16.1548103 102.186638 18.0598103 101.288707 18.0598103"></polygon>
            <path d="M104.873207,15.5243103 L105.030966,15.5243103 C105.421483,15.5243103 105.64769,15.2089655 105.64769,14.8046552 C105.64769,14.4141379 105.489931,14.1332759 105.085793,14.1193103 C105.010276,14.1193103 104.92131,14.1263793 104.873207,14.1467241 L104.873207,15.5243103 Z M103.975621,13.5094828 C104.256483,13.4548276 104.612862,13.4205172 104.955621,13.4205172 C105.448897,13.4205172 105.887517,13.4887931 106.189069,13.762931 C106.470276,14.0167241 106.552345,14.3251724 106.552345,14.7224138 C106.552345,15.2156897 106.312345,15.6613793 105.839586,15.8806897 L105.839586,15.8943103 C106.154931,16.0177586 106.312345,16.3122414 106.401655,16.8056897 C106.490621,17.3198276 106.613897,17.8886207 106.696138,18.0598276 L105.757517,18.0598276 C105.70269,17.9294828 105.599759,17.4636207 105.531138,16.9567241 C105.448897,16.3810345 105.305103,16.2165517 105.003724,16.2165517 L104.873207,16.2165517 L104.873207,18.0598276 L103.975621,18.0598276 L103.975621,13.5094828 Z" id="Fill-155" fill="#EB4724" mask="url(#mask-6)"></path>
            <polygon id="Fill-156" fill="#EB4724" mask="url(#mask-6)" points="107.196897 18.0598276 108.094655 18.0598276 108.094655 13.4410345 107.196897 13.4410345"></polygon>
            <path d="M111.110414,17.9912931 C110.979897,18.0531897 110.726448,18.1009483 110.411276,18.1009483 C109.232655,18.1009483 108.670759,17.1278448 108.670759,15.8187069 C108.670759,14.0785345 109.636793,13.3999138 110.534724,13.3999138 C110.849897,13.3999138 111.069207,13.4614655 111.158172,13.5231897 L111.00731,14.2771552 C110.904897,14.2288793 110.788172,14.1880172 110.589552,14.1880172 C110.082483,14.1880172 109.623172,14.6266379 109.623172,15.7709483 C109.623172,16.8743966 110.041276,17.3059483 110.589552,17.3059483 C110.740414,17.3059483 110.911448,17.2716379 111.021103,17.2375 L111.110414,17.9912931 Z" id="Fill-157" fill="#EB4724" mask="url(#mask-6)"></path>
            <path d="M113.187293,16.3055517 L113.036431,15.3393448 C112.9885,15.0583103 112.926776,14.5993448 112.885741,14.2907241 L112.865052,14.2907241 C112.817293,14.5993448 112.748672,15.0786552 112.700569,15.346069 L112.529534,16.3055517 L113.187293,16.3055517 Z M112.440052,17.0045172 L112.234534,18.0598621 L111.364362,18.0598621 L112.364879,13.441069 L113.440741,13.441069 L114.338672,18.0598621 L113.468155,18.0598621 L113.269534,17.0045172 L112.440052,17.0045172 Z" id="Fill-158" fill="#EB4724" mask="url(#mask-6)"></path>
            <path d="M114.845931,18.0598276 L114.845931,13.4410345 L115.668345,13.4410345 L116.380931,15.2501724 C116.518,15.6065517 116.744379,16.2025862 116.874552,16.6003448 L116.888172,16.6003448 C116.860759,16.1136207 116.799207,15.3118966 116.799207,14.4622414 L116.799207,13.4410345 L117.587138,13.4410345 L117.587138,18.0598276 L116.764897,18.0598276 L116.059034,16.3055172 C115.908345,15.9151724 115.695759,15.3324138 115.593172,14.9141379 L115.579379,14.9141379 C115.599724,15.3801724 115.634207,16.092931 115.634207,17.0181034 L115.634207,18.0598276 L114.845931,18.0598276 Z" id="Fill-159" fill="#EB4724" mask="url(#mask-6)"></path>
        </g>
    </g>
</svg>